<?xml version="1.0" encoding="utf-8"?>
<!-- Generator: Adobe Illustrator 19.0.0, SVG Export Plug-In . SVG Version: 6.00 Build 0)  -->
<svg version="1.1" id="Layer_1" xmlns="http://www.w3.org/2000/svg" xmlns:xlink="http://www.w3.org/1999/xlink" x="0px" y="0px"
	 viewBox="0 0 50 50" style="enable-background:new 0 0 50 50;" xml:space="preserve">
<style type="text/css">
	.st0{fill:#223225;}
	.st1{fill:#84A88B;}
	.st2{fill:#436348;}
</style>
<circle id="XMLID_1_" class="st0" cx="25" cy="25" r="25"/>
<path id="XMLID_2_" class="st0" d="M23,50H7.9C3.5,50,0,46.5,0,42.1V7.9C0,3.5,3.5,0,7.9,0H23c4.4,0,7.9,3.5,7.9,7.9v34.2
	C30.9,46.5,27.4,50,23,50z"/>
<path id="XMLID_3_" class="st1" d="M21.7,40.7H8.5c-2.5,0-4.5-2-4.5-4.5V13.8c0-2.5,2-4.5,4.5-4.5h13.2c1,0.4,15.8-0.3,16.9,0.3
	c4,1.9-24.7,2.4-22.4,4.5c0.1,5.3,0.2,17.5,0.3,22.7c-2.4,2.3,27.1,1.9,22.9,3.9C38.4,41.2,22.8,40.4,21.7,40.7z"/>
<path id="XMLID_5_" class="st1" d="M57.7,24.4"/>
<path id="XMLID_6_" class="st0" d="M8.6,38.2L8.6,38.2c-1.3,0-2.3-1-2.3-2.3V13.7c0-1.3,1-2.3,2.3-2.3h0c1.3,0,2.3,1,2.3,2.3v22.3
	C10.9,37.2,9.9,38.2,8.6,38.2z"/>
<ellipse id="XMLID_4_" class="st2" cx="34.5" cy="25.1" rx="10.5" ry="10.4"/>
</svg>
