<?xml version="1.0" encoding="utf-8"?>
<!-- Generator: Adobe Illustrator 19.0.0, SVG Export Plug-In . SVG Version: 6.00 Build 0)  -->
<svg version="1.1" id="Layer_1" xmlns="http://www.w3.org/2000/svg" xmlns:xlink="http://www.w3.org/1999/xlink" x="0px" y="0px"
	 viewBox="274 -274 578 578" style="enable-background:new 274 -274 578 578;" xml:space="preserve">
<style type="text/css">
	.st0{fill:#F2F2F2;}
</style>
<path class="st0" d="M401.2-224.1c1.3-0.9,2.7-1.7,4-2.6c0.7-0.5,1.3-0.9,2-1.3c29.7-19,62.6-32.3,97.1-39.4c2-0.4,4-0.8,6-1.2
	c38-6.9,77-6.3,114.7,2c2,0.5,4,0.9,6,1.4c34.8,8.4,67.8,23.2,97.1,43.8c0.3,0.2,0.7,0.5,1,0.7c1.7,1.2,3.4,2.4,5,3.6
	c5.1,3.8,10.1,7.7,15,11.8C871.1-102.4,886.6,80,783.7,202c-1.5,1.8-3.1,3.6-4.7,5.4c-23.1,26.1-50.8,47.8-81.6,64.1
	c-0.5,0.2-1.1,0.5-1.6,0.8c-1.3,0.7-2.6,1.3-3.9,2c-5.8,2.9-11.7,5.6-17.7,8.1c-11.4,4.7-23.1,8.7-35,12c-2.3,0.7-4.5,1.2-6.8,1.8
	c-22.7,5.6-46.1,8.4-69.5,8.4c-1.2,0-2.4,0-3.7,0c-0.4,0-0.8,0-1.2,0c-1.1-0.1-2.2-0.1-3.4-0.1c-22.2-0.6-44.3-3.8-65.8-9.5
	c-1.7-0.5-3.4-0.9-5.1-1.4c-16.3-4.6-32.2-10.7-47.5-18.2c-0.7-0.4-1.5-0.7-2.2-1.1c-0.6-0.3-1.2-0.6-1.8-0.9
	c-6-3.1-11.9-6.3-17.7-9.8c-25.2-15.2-48-34-67.5-56c-1.7-1.8-3.3-3.7-4.9-5.6C298,150,273.9,83.9,274,15.7
	C273.9-80.5,321.8-170.4,401.2-224.1z"/>
</svg>
