<?xml version="1.0" encoding="utf-8"?>
<!-- Generator: Adobe Illustrator 19.0.0, SVG Export Plug-In . SVG Version: 6.00 Build 0)  -->
<svg version="1.1" id="Layer_1" xmlns="http://www.w3.org/2000/svg" xmlns:xlink="http://www.w3.org/1999/xlink" x="0px" y="0px"
	 viewBox="274 -274 578 578" style="enable-background:new 274 -274 578 578;" xml:space="preserve">
<style type="text/css">
	.st0{fill:#F2F2F2;}
	.st1{fill:#223225;}
	.st2{fill:#426347;}
	.st3{fill:#C0D8C4;}
</style>
<path class="st0" d="M401.2-224.1c1.3-0.9,2.7-1.7,4-2.6c0.7-0.5,1.3-0.9,2-1.3c29.7-19,62.6-32.3,97.1-39.4c2-0.4,4-0.8,6-1.2
	c38-6.9,77-6.3,114.7,2c2,0.5,4,0.9,6,1.4c34.8,8.4,67.8,23.2,97.1,43.8c0.3,0.2,0.7,0.5,1,0.7c1.7,1.2,3.4,2.4,5,3.6
	c5.1,3.8,10.1,7.7,15,11.8C871.1-102.4,886.6,80,783.7,202c-1.5,1.8-3.1,3.6-4.7,5.4c-23.1,26.1-50.8,47.8-81.6,64.1
	c-0.5,0.2-1.1,0.5-1.6,0.8c-1.3,0.7-2.6,1.3-3.9,2c-5.8,2.9-11.7,5.6-17.7,8.1c-11.4,4.7-23.1,8.7-35,12c-2.3,0.7-4.5,1.2-6.8,1.8
	c-22.7,5.6-46.1,8.4-69.5,8.4c-1.2,0-2.4,0-3.7,0c-0.4,0-0.8,0-1.2,0c-1.1-0.1-2.2-0.1-3.4-0.1c-22.2-0.6-44.3-3.8-65.8-9.5
	c-1.7-0.5-3.4-0.9-5.1-1.4c-16.3-4.6-32.2-10.7-47.5-18.2c-0.7-0.4-1.5-0.7-2.2-1.1c-0.6-0.3-1.2-0.6-1.8-0.9
	c-6-3.1-11.9-6.3-17.7-9.8c-25.2-15.2-48-34-67.5-56c-1.7-1.8-3.3-3.7-4.9-5.6C298,150,273.9,83.9,274,15.7
	C273.9-80.5,321.8-170.4,401.2-224.1z"/>
<g>
	<path class="st1" d="M579.1,119.1c-43,0-40.3,19.5-40.3,19.5l0,20.2h41v6.1h-57.3c0,0-27.5-3.3-27.5,42.1s24,43.7,24,43.7h14.3v-21
		c0,0-0.8-25.1,23.6-25.1h40.7c0,0,22.9,0.4,22.9-23.1v-38.8C620.6,142.6,624,119.1,579.1,119.1L579.1,119.1L579.1,119.1z
		 M556.5,132.6c4.1,0,7.4,3.4,7.4,7.7c0,4.3-3.3,7.7-7.4,7.7c-4.1,0-7.4-3.4-7.4-7.7C549.1,136.1,552.4,132.6,556.5,132.6
		L556.5,132.6L556.5,132.6z"/>
	<path class="st2" d="M580.3,295.1c43,0,40.3-19.5,40.3-19.5l0-20.2h-41v-6.1h57.3c0,0,27.5,3.3,27.5-42.1c0-45.3-24-43.7-24-43.7
		H626v21c0,0,0.8,25.1-23.6,25.1h-40.7c0,0-22.9-0.4-22.9,23.1v38.8C538.9,271.6,535.4,295.1,580.3,295.1L580.3,295.1L580.3,295.1z
		 M602.9,281.5c-4.1,0-7.4-3.4-7.4-7.7c0-4.3,3.3-7.7,7.4-7.7c4.1,0,7.4,3.4,7.4,7.7C610.3,278.1,607,281.5,602.9,281.5L602.9,281.5
		L602.9,281.5z"/>
</g>
<g>
	<path class="st1" d="M379.9,18.6c-2.6-6.5-6-8.8-13.3-8.8c-6.4,0-10.3,2.8-10.3,6.9s3,6,11.2,7.4c11.6,2.3,16.3,4.2,20.6,6.9
		c6,4.2,9,10.2,9,17.1c0,7.8-4.3,15.2-11.2,19.8c-4.7,2.8-12,4.6-20.2,4.6c-8.6,0-15.9-1.8-21.9-6.5c-4.7-3.7-6.9-6.9-9-13.8
		l16.3-3.7c2.6,6.9,7.3,10.2,15.9,10.2c7.3,0,12-2.8,12-7.8c0-4.1-3-6-13.3-8.3c-8.6-1.8-13.3-3.2-17.6-5.5c-6-3.7-9.4-9.7-9.4-17.1
		c0-6.9,3-12.5,8.2-17.1c5.1-4.1,11.2-6.5,19.7-6.5c8.2,0,15,1.8,20.2,5.5c3.9,3.2,6,6,8.6,12L379.9,18.6L379.9,18.6z"/>
	<path class="st1" d="M428.8,10.8c9.9,0,14.6,7.4,14.6,24c0,16.2-5.2,24-14.2,24c-5.6,0-9.4-2.3-11.6-7.4c-1.7-4.1-3-10.2-3-16.6
		C414.7,18.6,419.8,10.8,428.8,10.8z M459.3,73.1c-3.9,0.5-5.1,0.5-6.9,0.5c-4.7,0-6.9-1.8-6.9-5.5c10.3-6,16.3-18,16.3-32.8
		c0-23.5-12.9-38.8-33-38.8c-10.3,0-18,3.7-23.6,10.6c-6,7.4-9,17.1-9,27.7c0,21.7,13.3,37.4,31.3,37.4c2.6,0,4.3,0,7.7-0.5
		c1.3,11.1,6,15.2,17.6,15.2c2.6,0,3.9,0,6.4-0.9L459.3,73.1L459.3,73.1L459.3,73.1z M510.3,56.9v14.8h-48.5V-2.1h18v59.1
		L510.3,56.9L510.3,56.9z M560.6,18.6c-2.6-6.5-6-8.8-13.3-8.8c-6.9,0-10.3,2.8-10.3,6.9s2.6,6,10.7,7.4c12,2.3,16.7,4.2,20.6,6.9
		c6,4.2,9.4,10.2,9.4,17.1c0,7.8-4.3,15.2-11.2,19.8c-5.1,2.8-12,4.6-20.2,4.6c-9,0-16.3-1.8-21.9-6.5c-4.7-3.7-6.9-6.9-9-13.8
		l16.3-3.7c2.1,6.9,6.9,10.2,15.9,10.2c7.3,0,12-2.8,12-7.8c0-4.1-3-6-13.3-8.3c-8.6-1.8-13.7-3.2-17.6-5.5c-6-3.7-9.4-9.7-9.4-17.1
		c0-6.9,2.6-12.5,7.7-17.1c5.1-4.1,11.6-6.5,20.2-6.5c8.2,0,14.6,1.8,19.7,5.5c4.3,3.2,6.4,6,8.6,12L560.6,18.6L560.6,18.6z"/>
	<path class="st1" d="M594,37.5c0.9-7.4,3.9-11.1,10.3-11.1c6,0,9,3.2,9.4,11.1H594z M630.1,46.8c0-9.2-1.3-13.8-4.3-19.4
		c-4.3-6.9-12.9-11.5-22.3-11.5c-15.9,0-27,12-27,29.1c0,16.6,11.2,27.7,27.9,27.7c12.9,0,21-6,25.7-18.9l-15.5-0.9
		c-0.9,5.5-4.3,8.3-9.9,8.3c-6.4,0-10.7-4.6-10.7-11.5v-2.8L630.1,46.8L630.1,46.8L630.1,46.8z"/>
	<path class="st1" d="M629.2,71.7V16.8h15.5v10.2c2.1-7.4,6-11.1,12-11.1h3V32H658c-8.2,0-12.4,5.5-12.4,17.1v22.6H629.2z"/>
	<path class="st1" d="M689.3,71.7h-12.9l-19.3-54.9h17.6l10.7,34.6l11.2-34.6H709L689.3,71.7L689.3,71.7z"/>
	<path class="st1" d="M718.9,37.5c0.9-7.4,4.3-11.1,10.3-11.1c6.4,0,9,3.2,9.9,11.1H718.9L718.9,37.5z M755.4,46.8
		c0-9.2-1.3-13.8-4.7-19.4c-4.3-6.9-12.5-11.5-21.9-11.5c-16.3,0-27.5,12-27.5,29.1c0,16.6,11.2,27.7,27.9,27.7
		c13.3,0,21.5-6,25.8-18.9l-15-0.9c-1.3,5.5-4.7,8.3-10.3,8.3c-6.4,0-10.7-4.6-10.7-11.5v-2.8L755.4,46.8L755.4,46.8L755.4,46.8z"/>
	<path class="st1" d="M754.5,71.7V16.8h15v10.2c2.6-7.4,6.4-11.1,12-11.1h3.4V32h-2.1c-8.2,0-12.4,5.5-12.4,17.1v22.6H754.5z"/>
	<path class="st2" d="M345.1-1.7v-46.1L329.3-1.7H325l-15.9-46.1v46.1h-5.6v-53.1h9.4l14.6,42.4l14.6-42.4h9v53.1H345.1z
		 M361.4-40.9h6v39.2h-6V-40.9z M361.4-54.7h6v6.9h-6V-54.7z M403.5-14.6c-0.9,5.1-1.7,7.4-4.3,9.7c-2.6,2.8-5.6,4.2-9.4,4.2
		c-9.4,0-15.4-7.8-15.4-20.3s6-20.8,15.4-20.8c7.7,0,12.4,4.6,13.7,13.8l-4.7,0.9c-1.3-6.5-4.3-9.7-9-9.7c-6,0-9.9,6-9.9,15.2
		c0,10.2,3.9,15.7,9.9,15.7c4.7,0,7.7-3.2,9-9.7L403.5-14.6L403.5-14.6z M411.6-1.7v-39.2h4.7v9.2c1.7-3.7,2.6-5.1,3.9-6.9
		c1.9-2.1,4.6-3.2,7.3-3.2h2.1v6c-6.9-0.9-12.4,5.1-12.4,13.4v20.8L411.6-1.7L411.6-1.7L411.6-1.7z M465.7-21.1
		c0,12-6.9,20.3-16.7,20.3c-5.6,0-9.4-1.8-12.4-6.5c-2.6-4.1-3.4-8.8-3.4-14.3s1.3-10.2,3.9-13.8c3.4-4.6,7.3-6.5,12.9-6.5
		C459.3-41.8,465.7-33.5,465.7-21.1z M441.7-32.6c-1.7,2.8-2.6,6.5-2.6,11.1c0,10.2,3.9,15.7,10.3,15.7c6.4,0,9.9-5.5,9.9-15.2
		c0-5.1-0.4-8.8-2.6-11.5c-1.7-2.8-4.7-4.2-7.7-4.2C446.4-36.7,443.4-34.9,441.7-32.6L441.7-32.6z M474.7-13.2
		c0.4,2.3,1.3,3.7,2.1,4.6c2.1,1.8,5.6,2.8,9,2.8c5.1,0,8.6-2.3,8.6-6c0-3.2-2.1-5.1-6.4-6l-7.3-1.8c-6.4-0.9-9.9-5.1-9.9-10.6
		c0-6.9,5.1-11.5,13.7-11.5c7.3,0,12.4,3.2,14.2,9.7l-5.1,1.4c-1.7-4.2-4.7-6-9.4-6s-7.7,2.3-7.7,5.5s1.7,5.1,5.6,5.5l7.3,1.4
		c7.3,1.4,11.2,5.5,11.2,11.5c0,7.4-6,12-15,12c-5.1,0-9.4-1.4-12.4-4.2c-1.7-1.8-3-3.7-3.9-6.9L474.7-13.2L474.7-13.2z M538.2-21.1
		c0,12-6.9,20.3-16.7,20.3c-5.1,0-9.4-1.8-12.4-6.5c-2.1-4.1-3.4-8.8-3.4-14.3s1.3-10.2,3.9-13.8c3.4-4.6,7.7-6.5,12.9-6.5
		C531.8-41.8,538.2-33.5,538.2-21.1z M514.2-32.6c-1.3,2.8-2.6,6.5-2.6,11.1c0,10.2,3.9,15.7,10.3,15.7c6.4,0,10.3-5.5,10.3-15.2
		c0-5.1-0.9-8.8-2.6-11.5c-2.1-2.8-4.7-4.2-7.7-4.2C518.9-36.7,515.9-34.9,514.2-32.6L514.2-32.6z M560.6-35.8h-9v34.1h-5.2v-34.1
		H540v-5.1h6.4c0-4.6,0.4-6.5,1.3-8.8c1.3-3.7,4.7-6,9.4-6c1.7,0,3,0,5.6,0.5v5.1c-1.7-0.5-2.6-0.9-3.4-0.9c-3.9,0-6,1.4-6.9,4.2
		c-0.9,1.4-0.9,1.8-0.9,6h9V-35.8z M584.2-1.2c-2.6,0.5-3.9,0.9-5.6,0.9c-6.9,0-10.3-4.2-10.3-12v-23.5h-6.4v-5.1h6.4v-9.7l5.6-0.5
		v10.2h8.2v5.1h-8.2v24.5c0,4.1,1.7,6,6,6c1.3,0,2.1,0,4.3-0.5V-1.2L584.2-1.2z M597-41.4c0,2.8-2.6,5.5-5.6,5.5
		c-2.6,0-5.1-2.8-5.1-5.5c0-3.2,2.6-5.5,5.6-5.5C594.5-46.9,597-44.6,597-41.4z M587.2-41.4c0,2.3,2.1,4.6,4.3,4.6
		c2.6,0,4.7-2.3,4.7-4.6c0-2.8-2.1-5.1-4.7-5.1C589.3-46.4,587.2-44.1,587.2-41.4z M593.2-38.1l-1.3-2.8h-1.7v2.8h-0.9v-6.5h2.6
		c1.3,0,2.1,0.5,2.1,1.8c0,0.5-0.4,1.4-1.3,1.4l1.3,3.2H593.2L593.2-38.1z M591.9-41.8c0.9,0,1.3-0.5,1.3-0.9c0-0.9-0.4-1.4-1.3-1.4
		h-1.7v2.3L591.9-41.8L591.9-41.8z"/>
</g>
<path class="st1" d="M685-111.2h12.1v-33.1h30.5v-11.8h-30.5v-33.1H685v33.1h-30.1v11.8H685V-111.2z"/>
<path class="st1" d="M628.8-63.4h10.3v-29.4h27.2v-9.2h-27.2v-29.8h-10.3v29.8h-27.2v9.2h27.2V-63.4z"/>
<path class="st3" d="M743.1-169.7h10.3v-29.4H781v-8.8h-27.6v-29.8h-10.3v29.8h-27.2v8.8h27.2V-169.7z"/>
<path class="st2" d="M686.8-40.3h8.8v-21h18.7v-7.7h-18.7v-21h-8.8v21h-18.4v7.7h18.4V-40.3z"/>
<path class="st2" d="M629.1-169.7h9.6v-29.8h27.6v-8.5h-27.6v-29.8h-9.6v29.8h-27.6v8.5h27.6V-169.7z"/>
<path class="st3" d="M774.3-125.6h8.8v-20.6h18.7v-8.1h-18.7v-20.6h-8.8v20.6H756v8.1h18.4V-125.6z"/>
<path class="st1" d="M743.1-63.4h10.3v-29.4H781v-9.2h-27.6v-29.8h-10.3v29.8h-27.2v9.2h27.2V-63.4z"/>
<path class="st2" d="M712.9-232.5v-6.2h-18.4V-259H688v20.2h-18.4v6.2H688v20.2h6.6v-20.2H712.9z M598.6-127h6.6v-20.2h18.4v-6.2
	h-18.4v-19.9h-6.6v19.9h-18.4v6.6l18.4-0.4V-127z"/>
</svg>
