<?xml version="1.0" encoding="utf-8"?>
<!-- Generator: Adobe Illustrator 19.0.0, SVG Export Plug-In . SVG Version: 6.00 Build 0)  -->
<svg version="1.1" id="Layer_1" xmlns="http://www.w3.org/2000/svg" xmlns:xlink="http://www.w3.org/1999/xlink" x="0px" y="0px"
	 viewBox="189 -189 578 578" style="enable-background:new 189 -189 578 578;" xml:space="preserve">
<style type="text/css">
	.st0{fill:#F2F2F2;}
	.st1{fill:#2F2E41;}
	.st2{fill:#FFB8B8;}
	.st3{fill:#3F3D56;}
	.st4{fill:#426347;}
	.st5{fill:#E6E6E6;}
	.st6{fill:#CCCCCC;}
	.st7{fill:#FFFFFF;}
</style>
<path class="st0" d="M767,100c0.1,68.2-24,134.3-68.1,186.3c-1.6,1.9-3.2,3.8-4.9,5.6c-19.5,22-42.3,40.8-67.5,56
	c-5.8,3.5-11.7,6.7-17.7,9.8c-0.6,0.3-1.2,0.6-1.8,0.9c-0.7,0.4-1.5,0.7-2.2,1.1c-15.3,7.5-31.2,13.6-47.5,18.2
	c-1.7,0.5-3.4,0.9-5.1,1.4c-21.5,5.7-43.6,8.9-65.8,9.5c-1.2,0-2.3,0-3.4,0.1c-0.4,0-0.8,0-1.2,0c-1.3,0-2.5,0-3.7,0
	c-23.4,0-46.8-2.8-69.5-8.4c-2.3-0.6-4.5-1.1-6.8-1.8c-11.9-3.3-23.6-7.3-35-12c-6-2.5-11.9-5.2-17.7-8.1c-1.3-0.7-2.6-1.3-3.9-2
	c-0.5-0.3-1.1-0.6-1.6-0.8c-30.8-16.3-58.5-38-81.6-64.1c-1.6-1.8-3.2-3.6-4.7-5.4c-102.9-122-87.4-304.4,34.6-407.3
	c4.9-4.1,9.9-8,15-11.8c1.6-1.2,3.3-2.4,5-3.6c0.3-0.2,0.7-0.5,1-0.7c29.3-20.6,62.3-35.4,97.1-43.8c2-0.5,4-0.9,6-1.4
	c37.7-8.3,76.7-8.9,114.7-2c2,0.4,4,0.8,6,1.2c34.5,7.1,67.4,20.4,97.1,39.4c0.7,0.4,1.3,0.8,2,1.3c1.3,0.9,2.7,1.7,4,2.6
	C719.2-86.1,767.1,3.8,767,100z"/>
<path class="st1" d="M643.9,56.5l1.7-13.3c1.2-9.8,10.2-16.8,20.1-15.6s16.8,10.2,15.6,20.1l-1.7,13.3c-0.2,1.3-1.4,2.3-2.7,2.1
	l-30.9-3.9C644.6,59,643.7,57.8,643.9,56.5z"/>
<circle class="st2" cx="658.6" cy="47.2" r="13.2"/>
<path class="st1" d="M641.2,43.7c1-7.8,8.1-13.3,15.9-12.3l2.7,0.3c7.8,1,13.3,8.1,12.3,15.9l0,0.3l-5.6-0.7l-1.2-5.6l-1.1,5.3
	l-2.9-0.4l-0.6-2.8l-0.5,2.7L641.1,44L641.2,43.7z"/>
<path class="st2" d="M594.2,94.2c1.5,3,5.2,4.2,8.2,2.7c0.3-0.2,0.6-0.4,0.9-0.6l12,7l6-6.2l-17-9.7c-2.2-2.5-6.1-2.8-8.6-0.6
	C593.5,88.7,592.9,91.7,594.2,94.2L594.2,94.2z"/>
<path class="st3" d="M633.4,106.8c-8.8,0-24.4-4-25.2-4.2l-0.3-0.1l2.4-12.4l23.7,4.7L647,76.8l14.8-1.5l-0.4,0.5
	c-0.2,0.3-19.3,25.4-22.2,29.6C638.4,106.4,636.3,106.8,633.4,106.8z"/>
<path class="st3" d="M635.8,153.3l-0.4-0.2c-0.1,0-7.6-3.7-11.5-10.8c-3.9-7.1,14.2-37.1,15.5-39.2l0-9.5L646,76l8.3-4.7l-7.1,16.6
	L635.8,153.3z"/>
<polygon class="st2" points="627.5,255.9 619.5,255.9 615.8,225.3 627.5,225.3 "/>
<path class="st1" d="M629.5,263.5l-25.6,0v-0.3c0-5.5,4.5-10,10-10h0l15.6,0L629.5,263.5z"/>
<polygon class="st2" points="712.7,248.9 705.1,251.4 692,223.5 703.2,219.8 "/>
<path class="st1" d="M717,255.6l-24.3,8l-0.1-0.3c-1.7-5.2,1.1-10.8,6.4-12.6l0,0l14.8-4.9L717,255.6z"/>
<path class="st1" d="M697.3,243.9l-22.6-37.8l-19.1-40.3l-17.2,35.6l-6.8,46.1l-23.9,0.3l0.1-0.4L644.4,102l28.7,4.3l-1.3,18.9
	l0.8,1.1c6.5,9.2,13.2,18.7,9.3,29l10.9,32.3l24.1,53.9L697.3,243.9z"/>
<path class="st4" d="M645.7,133.6c-4.2,0-8.9-4.7-6.4-12.8l-0.2-0.1l5.9-26.1c-5.2-7.4,1.6-13.5,2.3-14l3.2-5.8l14.3-9.1l7.2,60.2
	l-0.1,0.1C666.8,130.9,649.2,133.6,645.7,133.6z"/>
<path class="st3" d="M675,147.2c-0.6,0-1.1-0.1-1.7-0.2c-0.6-0.1-1.5-0.8-2.9-5.4c-5.5-18-12.1-72.3-7.3-77.6l0.1-0.1l7.8,1.3
	c0.6-0.5,4.1-2.9,7.2-2.4c1.3,0.2,2.5,0.9,3.3,1.9l0.1,0.1l2.5,35.4l9.1,41.6l-0.2,0.1C692.4,142,681.1,147.2,675,147.2z"/>
<path class="st2" d="M669.8,133.3c3.3-0.1,6-2.9,5.9-6.3c0-0.4-0.1-0.7-0.1-1.1l11.4-7.9l-3.1-8.1l-16,11.3
	c-3.2,0.9-5.1,4.3-4.2,7.5C664.4,131.6,667,133.4,669.8,133.3L669.8,133.3z"/>
<path class="st3" d="M683.2,124.4L673,117l14.3-19.5l-11-19.4l4.9-14l0.3,0.6c0.1,0.3,14.8,28.2,17.4,32.7
	c2.7,4.7-14.8,26-15.6,26.9L683.2,124.4z"/>
<path class="st5" d="M454.4,212.2l-8.7-3.6l-5.9-43.4h-79.1l-6.4,43.2l-7.7,3.9c-0.9,0.5-1.3,1.6-0.8,2.5c0.3,0.6,0.9,1,1.6,1h106.3
	c1,0,1.8-0.8,1.8-1.8C455.5,213.1,455.1,212.5,454.4,212.2z"/>
<path class="st6" d="M594.9,170.9H206.5c-4.2,0-7.7-3.5-7.7-7.7v-54.8h403.8v54.8C602.6,167.5,599.2,170.9,594.9,170.9z"/>
<path class="st3" d="M603,134.3H198.4V-100c0-5.1,4.2-9.3,9.3-9.3h386c5.1,0,9.3,4.2,9.3,9.3V134.3z"/>
<path class="st7" d="M578.8,117.3H222.6c-3.9,0-7.1-3.2-7.2-7.2V-85.1c0-3.9,3.2-7.1,7.2-7.2h356.2c3.9,0,7.1,3.2,7.2,7.2v195.3
	C586,114.1,582.8,117.3,578.8,117.3z"/>
<path class="st6" d="M500.6,216.2H300.5c-0.4,0-0.8-0.3-0.9-0.7c-0.1-0.5,0.2-1,0.6-1.1c0.1,0,0.2,0,0.2,0h200.1
	c0.4,0,0.8,0.3,1,0.7c0.1,0.5-0.2,1-0.7,1.1C500.8,216.2,500.7,216.2,500.6,216.2z"/>
<rect x="489" y="-60.7" class="st0" width="86" height="65.7"/>
<rect x="493.3" y="-57.5" class="st7" width="77.5" height="59.2"/>
<path class="st3" d="M533.4-13.6C533.4-13.6,533.4-13.6,533.4-13.6c11.4-0.6,20.2-10.3,19.6-21.7c-0.5-10.4-8.7-18.7-19.1-19.5
	c-0.1,0-0.3,0-0.4,0.1c-0.1,0.1-0.2,0.2-0.2,0.3L532.9-14C532.9-13.8,533.1-13.6,533.4-13.6L533.4-13.6z"/>
<path class="st5" d="M517.2-48.1c0.2,0,0.3,0.1,0.4,0.2l13.9,14.2c0.1,0.1,0.2,0.3,0.2,0.4l-0.2,19.3c0,0.2-0.1,0.3-0.2,0.4
	c-0.1,0.1-0.3,0.2-0.5,0.2c-11.4-0.9-20-10.8-19.2-22.3c0.3-4.5,2.1-8.8,5.1-12.2C516.8-48,517-48.1,517.2-48.1
	C517.2-48.1,517.2-48.1,517.2-48.1z"/>
<path class="st4" d="M531.3-54.9c0.2,0,0.3,0.1,0.4,0.2c0.1,0.1,0.2,0.3,0.2,0.4l-0.2,17.4c0,0.3-0.3,0.6-0.6,0.6
	c-0.2,0-0.3-0.1-0.4-0.2l-12.1-12.4c-0.2-0.2-0.2-0.6,0-0.9c0,0,0,0,0,0C522.1-52.9,526.6-54.7,531.3-54.9
	C531.3-54.9,531.3-54.9,531.3-54.9z"/>
<path class="st4" d="M525.1-5.2c0,2-1.7,3.7-3.8,3.7s-3.7-1.7-3.7-3.8s1.7-3.7,3.8-3.7c0,0,0,0,0,0C523.4-8.9,525.1-7.3,525.1-5.2z"
	/>
<path class="st3" d="M535.7-5.1c0,2-1.7,3.7-3.8,3.7s-3.7-1.7-3.7-3.8s1.7-3.7,3.8-3.7c0,0,0,0,0,0C534-8.8,535.7-7.1,535.7-5.1z"/>
<path class="st5" d="M546.3-5c0,2-1.7,3.7-3.8,3.7c-2,0-3.7-1.7-3.7-3.8c0-2,1.7-3.7,3.8-3.7l0,0C544.6-8.7,546.3-7,546.3-5z"/>
<rect x="488.1" y="15.3" class="st0" width="86" height="65.7"/>
<rect x="492.4" y="18.6" class="st7" width="77.5" height="59.2"/>
<circle class="st3" cx="505.5" cy="34.8" r="3.2"/>
<path class="st3" d="M557.2,32.3c1.2,0,2.2,1,2.2,2.2c0,1.2-1,2.2-2.2,2.2c0,0,0,0,0,0h-33.8c-1.2,0-2.2-1-2.2-2.2s1-2.2,2.2-2.2
	H557.2 M557.2,31.8h-33.8c-1.5,0-2.7,1.2-2.7,2.7c0,1.5,1.2,2.7,2.7,2.7c0,0,0,0,0,0h33.8c1.5,0,2.7-1.2,2.7-2.7
	C559.9,33,558.7,31.8,557.2,31.8C557.2,31.8,557.2,31.8,557.2,31.8z"/>
<path class="st4" d="M543.9,37.2h-25.5c-1.5,0-2.7-1.2-2.7-2.7c0-1.5,1.2-2.7,2.7-2.7c0,0,0,0,0,0h25.5c1.5,0,2.7,1.2,2.7,2.7
	C546.6,36,545.4,37.2,543.9,37.2z"/>
<circle class="st3" cx="505.5" cy="48.2" r="3.2"/>
<path class="st3" d="M557.2,45.7c1.2,0,2.2,1,2.2,2.2c0,1.2-1,2.2-2.2,2.2c0,0,0,0,0,0h-33.8c-1.2,0-2.2-1-2.2-2.2
	c0-1.2,1-2.2,2.2-2.2H557.2 M557.2,45.1h-33.8c-1.5,0-2.7,1.2-2.7,2.7s1.2,2.7,2.7,2.7h33.8c1.5,0,2.7-1.2,2.7-2.7
	S558.7,45.1,557.2,45.1z"/>
<path class="st4" d="M553.5,50.6h-35.1c-1.5,0-2.7-1.2-2.7-2.7c0-1.5,1.2-2.7,2.7-2.7c0,0,0,0,0,0h35.1c1.5,0,2.7,1.2,2.7,2.7
	C556.2,49.4,555,50.6,553.5,50.6z"/>
<circle class="st3" cx="505.5" cy="61.5" r="3.2"/>
<path class="st3" d="M557.2,59c1.2,0,2.2,1,2.2,2.2c0,1.2-1,2.2-2.2,2.2c0,0,0,0,0,0h-33.8c-1.2,0-2.2-1-2.2-2.2
	c0-1.2,1-2.2,2.2-2.2H557.2 M557.2,58.5h-33.8c-1.5,0-2.7,1.2-2.7,2.7s1.2,2.7,2.7,2.7h33.8c1.5,0,2.7-1.2,2.7-2.7
	S558.7,58.5,557.2,58.5z"/>
<path class="st4" d="M532.6,63.9h-14.2c-1.5,0-2.7-1.2-2.7-2.7c0-1.5,1.2-2.7,2.7-2.7c0,0,0,0,0,0h14.2c1.5,0,2.7,1.2,2.7,2.7
	C535.4,62.7,534.1,63.9,532.6,63.9z"/>
<rect x="228.8" y="-49.1" class="st0" width="240.3" height="123.2"/>
<rect x="236.8" y="-43" class="st7" width="224.3" height="110.9"/>
<path class="st3" d="M433.3,51H269.8c-0.3,0-0.5-0.2-0.5-0.5v-78.4c0-0.3,0.2-0.5,0.5-0.5s0.5,0.2,0.5,0.5c0,0,0,0,0,0V50h163
	c0.3,0,0.5,0.2,0.5,0.5C433.8,50.8,433.6,51,433.3,51z"/>
<path class="st4" d="M304.7,45.4h-14.9c-0.8,0-1.5-0.7-1.5-1.5V23.4c0-0.8,0.7-1.5,1.5-1.5h14.9c0.8,0,1.5,0.7,1.5,1.5v20.5
	C306.2,44.7,305.6,45.4,304.7,45.4z"/>
<path class="st4" d="M331.8,45.4H317c-0.8,0-1.5-0.7-1.5-1.5V3.9c0-0.8,0.7-1.5,1.5-1.5h14.9c0.8,0,1.5,0.7,1.5,1.5v39.9
	C333.4,44.7,332.7,45.4,331.8,45.4z"/>
<path class="st4" d="M359,45.4h-14.9c-0.8,0-1.5-0.7-1.5-1.5V23.4c0-0.8,0.7-1.5,1.5-1.5H359c0.8,0,1.5,0.7,1.5,1.5v20.5
	C360.5,44.7,359.8,45.4,359,45.4z"/>
<path class="st4" d="M386.1,45.4h-14.9c-0.8,0-1.5-0.6-1.5-1.4V-3.8c0-0.8,0.7-1.5,1.5-1.4h14.9c0.8,0,1.5,0.6,1.5,1.4v47.8
	C387.6,44.8,386.9,45.4,386.1,45.4z"/>
<path class="st4" d="M413.2,45.4h-14.9c-0.8,0-1.5-0.7-1.5-1.5v-61.4c0-0.8,0.7-1.5,1.5-1.5h14.9c0.8,0,1.5,0.7,1.5,1.5v61.4
	C414.7,44.7,414,45.4,413.2,45.4z"/>
<circle class="st3" cx="297.3" cy="12.6" r="3.1"/>
<circle class="st3" cx="324.4" cy="-7.3" r="3.1"/>
<circle class="st3" cx="351.5" cy="12.6" r="3.1"/>
<circle class="st3" cx="378.6" cy="-17" r="3.1"/>
<circle class="st3" cx="405.8" cy="-28.3" r="3.1"/>
<polygon class="st3" points="351.6,13.3 324.4,-7 297.6,13.1 297,12.2 324.4,-8.3 351.5,12 378.3,-17.5 378.4,-17.5 405.6,-28.4 
	405.9,-27.5 378.9,-16.6 "/>
<path class="st6" d="M757,265.3H531c-0.3,0-0.6-0.3-0.6-0.6s0.3-0.6,0.6-0.6h226c0.3,0,0.6,0.3,0.6,0.6S757.3,265.3,757,265.3z"/>
</svg>
