<?xml version="1.0" encoding="utf-8"?>
<!-- Generator: Adobe Illustrator 19.0.0, SVG Export Plug-In . SVG Version: 6.00 Build 0)  -->
<svg version="1.1" id="Layer_1" xmlns="http://www.w3.org/2000/svg" xmlns:xlink="http://www.w3.org/1999/xlink" x="0px" y="0px"
	 viewBox="274 -274 578 578" style="enable-background:new 274 -274 578 578;" xml:space="preserve">
<style type="text/css">
	.st0{fill:#F2F2F2;}
	.st1{fill:#426347;}
	.st2{fill:#223225;}
	.st3{fill:#C0D8C4;}
</style>
<path class="st0" d="M401.2-224.1c1.3-0.9,2.7-1.7,4-2.6c0.7-0.5,1.3-0.9,2-1.3c29.7-19,62.6-32.3,97.1-39.4c2-0.4,4-0.8,6-1.2
	c38-6.9,77-6.3,114.7,2c2,0.5,4,0.9,6,1.4c34.8,8.4,67.8,23.2,97.1,43.8c0.3,0.2,0.7,0.5,1,0.7c1.7,1.2,3.4,2.4,5,3.6
	c5.1,3.8,10.1,7.7,15,11.8C871.1-102.4,886.6,80,783.7,202c-1.5,1.8-3.1,3.6-4.7,5.4c-23.1,26.1-50.8,47.8-81.6,64.1
	c-0.5,0.2-1.1,0.5-1.6,0.8c-1.3,0.7-2.6,1.3-3.9,2c-5.8,2.9-11.7,5.6-17.7,8.1c-11.4,4.7-23.1,8.7-35,12c-2.3,0.7-4.5,1.2-6.8,1.8
	c-22.7,5.6-46.1,8.4-69.5,8.4c-1.2,0-2.4,0-3.7,0c-0.4,0-0.8,0-1.2,0c-1.1-0.1-2.2-0.1-3.4-0.1c-22.2-0.6-44.3-3.8-65.8-9.5
	c-1.7-0.5-3.4-0.9-5.1-1.4c-16.3-4.6-32.2-10.7-47.5-18.2c-0.7-0.4-1.5-0.7-2.2-1.1c-0.6-0.3-1.2-0.6-1.8-0.9
	c-6-3.1-11.9-6.3-17.7-9.8c-25.2-15.2-48-34-67.5-56c-1.7-1.8-3.3-3.7-4.9-5.6C298,150,273.9,83.9,274,15.7
	C273.9-80.5,321.8-170.4,401.2-224.1z"/>
<g>
	<path class="st1" d="M470.5-241.2h187v183.9h-187V-241.2z"/>
	<path class="st2" d="M485.4-226.6h157.3v154.7H485.4V-226.6z"/>
	<g>
		<path class="st3" d="M515.7-189.4c0,0,11.8-0.3,21.6-0.3c9.8,0,16.9,2.3,21.6,6.4c4.5,3.8,7.5,10.4,7.5,17.9
			c0,7.5-2.3,13.6-6.5,17.9c-5.4,5.5-11.8,8.8-22.6,9.3c-3,0.1-5.8,0.2-5.8,0.2v24.2h-15.8L515.7-189.4L515.7-189.4z M531.5-151.6
			c1.7,0.2,2.8,0.1,5.3,0.1c8.5-0.1,13.7-5.3,13.7-13.1c0-7-4.3-12.8-12.5-13.1c-3.2-0.1-6.6,0-6.6,0V-151.6z"/>
		<path class="st3" d="M572.4-130.8c3.2,2,10.7,4.9,15.8,4.9c5.2,0,7.4-1.8,7.4-4.7c0-2.9-1.7-5.9-8.2-8.1
			c-11.5-3.9-15.9-8.6-15.8-15.2c0-10.6,8.9-18.5,22.6-18.5c6.5,0,11.7,2.1,15.1,3.8v12.7c-2.5-1.4-9.7-4.5-14.5-4.5
			c-4.2,0-6.6,1.7-6.6,4.6c0,2.6,2.2,4,9,6.4c10.6,3.7,15,9.1,15.1,17.4c0,10.5-8.1,18.8-24.1,18.3c-5.5-0.2-11.6-2.4-15.8-4.7
			L572.4-130.8L572.4-130.8z"/>
	</g>
</g>
<g>
	<rect x="331.2" y="-14.2" class="st1" width="131.7" height="128.1"/>
	<rect x="325.2" y="-20.2" class="st1" width="143.7" height="140.1"/>
	<path class="st2" d="M331.2-14.2h131.7v128.1H331.2V-14.2z"/>
	<path class="st3" d="M414.7,55.5c0.1,8.1,4,13.5,13,13.5c3.5,0,6.6-0.5,9.8-1.9c0.4-0.2,0.7-0.1,0.7,0.4v7.5c0,0.6-0.2,0.9-0.6,1.2
		c-3.2,1.6-7.1,2.3-12,2.3c-15.8,0-21.7-11.7-21.7-24.7c0-14.1,7.3-25.7,20.2-25.7c13,0,17.6,11,17.6,19.9c0,2.9-0.2,5.2-0.5,6.3
		c-0.1,0.5-0.3,0.7-0.8,0.8c-1.2,0.2-4.7,0.4-10,0.4h-15.7V55.5z"/>
	<path class="st2" d="M426.8,47.3c3.1,0,4.1,0,4.4-0.1c0-0.4,0.1-0.7,0.1-1c0-3.2-1.6-9.2-7.8-9.2c-5.7,0-8.2,5-8.8,10.4H426.8
		L426.8,47.3z"/>
	<path class="st3" d="M365.8,59.1L361.1,77c-0.1,0.5-0.3,0.7-0.9,0.7h-8.8c-0.6,0-0.7-0.2-0.6-0.9l17-59.4c0.3-1.1,0.5-1.9,0.6-4.9
		c0-0.4,0.2-0.6,0.5-0.6h12.6c0.4,0,0.6,0.1,0.7,0.6l19,64.5c0.1,0.5,0,0.8-0.5,0.8h-9.9c-0.5,0-0.8-0.2-0.9-0.6l-4.9-18L365.8,59.1
		L365.8,59.1z"/>
	<path class="st2" d="M382.6,49.4c-1.7-6.6-5.7-21.1-7.2-28.1h-0.1c-1.3,7-4.5,18.9-7,28.1H382.6z"/>
</g>
<g>
	<path class="st1" d="M545.5-2.2H791v240.4H545.5V-2.2z"/>
	<rect x="564" y="16.6" class="st2" width="208.7" height="202.9"/>
	<polygon class="st3" points="668.7,166.4 660.8,139 631.3,139 623.4,166.4 603.2,166.4 631.6,69.5 631.6,58.9 658.7,58.9 
		691,166.4 	"/>
	<polygon class="st2" points="635,120.2 656.8,120.2 645.9,78 	"/>
	<rect x="700.6" y="84.6" class="st3" width="21.8" height="81.8"/>
	<ellipse class="st3" cx="711.6" cy="63.6" rx="11.3" ry="11.1"/>
</g>
</svg>
