<?xml version="1.0" encoding="utf-8"?>
<!-- Generator: Adobe Illustrator 19.0.0, SVG Export Plug-In . SVG Version: 6.00 Build 0)  -->
<svg version="1.1" id="Layer_1" xmlns="http://www.w3.org/2000/svg" xmlns:xlink="http://www.w3.org/1999/xlink" x="0px" y="0px"
	 viewBox="189 -189 578 578" style="enable-background:new 189 -189 578 578;" xml:space="preserve">
<style type="text/css">
	.st0{fill:#F2F2F2;}
	.st1{fill:#3F3D56;}
	.st2{fill:#426347;}
	.st3{fill:#A0616A;}
	.st4{fill:#2F2E41;}
	.st5{fill:#D0CDE1;}
	.st6{opacity:0.15;enable-background:new    ;}
	.st7{opacity:0.3;fill:#FFFFFF;enable-background:new    ;}
	.st8{opacity:0.3;enable-background:new    ;}
</style>
<path class="st0" d="M767,100c0.1,68.2-24,134.3-68.1,186.3c-1.6,1.9-3.2,3.8-4.9,5.6c-19.5,22-42.3,40.8-67.5,56
	c-5.8,3.5-11.7,6.7-17.7,9.8c-0.6,0.3-1.2,0.6-1.8,0.9c-0.7,0.4-1.5,0.7-2.2,1.1c-15.3,7.5-31.2,13.6-47.5,18.2
	c-1.7,0.5-3.4,0.9-5.1,1.4c-21.5,5.7-43.6,8.9-65.8,9.5c-1.2,0-2.3,0-3.4,0.1c-0.4,0-0.8,0-1.2,0c-1.3,0-2.5,0-3.7,0
	c-23.4,0-46.8-2.8-69.5-8.4c-2.3-0.6-4.5-1.1-6.8-1.8c-11.9-3.3-23.6-7.3-35-12c-6-2.5-11.9-5.2-17.7-8.1c-1.3-0.7-2.6-1.3-3.9-2
	c-0.5-0.3-1.1-0.6-1.6-0.8c-30.8-16.3-58.5-38-81.6-64.1c-1.6-1.8-3.2-3.6-4.7-5.4c-102.9-122-87.4-304.4,34.6-407.3
	c4.9-4.1,9.9-8,15-11.8c1.6-1.2,3.3-2.4,5-3.6c0.3-0.2,0.7-0.5,1-0.7c29.3-20.6,62.3-35.4,97.1-43.8c2-0.5,4-0.9,6-1.4
	c37.7-8.3,76.7-8.9,114.7-2c2,0.4,4,0.8,6,1.2c34.5,7.1,67.4,20.4,97.1,39.4c0.7,0.4,1.3,0.8,2,1.3c1.3,0.9,2.7,1.7,4,2.6
	C719.2-86.1,767.1,3.8,767,100z"/>
<polyline class="st0" points="440.1,-60.8 440.1,15.7 580.8,15.7 "/>
<polygon class="st1" points="601.4,16.3 439.5,16.3 439.5,-135 440.7,-135 440.7,15.2 601.4,15.2 "/>
<path class="st1" d="M441.9,16.5l-1-0.5c7-14.6,21.7-25,37.4-26.4c2.7-0.2,5.5-0.3,8.3-0.3c7.6-0.1,15.4-0.1,21.1-4.9
	c4.2-3.6,6.3-8.8,8.4-14.3c1.1-2.9,2.3-5.7,3.7-8.4c5.5-9.8,15.4-16.2,26.4-17c0.4,0,0.8,0,1.3,0c0.9-1.3,1.9-2.5,3-3.6
	c5.5-5.7,12.6-9.4,19.5-13l1.6-0.9c7.3-3.8,14.8-8.1,19.9-14.8c6.5-8.7,8.4-20.1,5-30.6l1.1-0.4c3.5,10.8,1.5,22.7-5.2,31.7
	c-5.3,6.8-12.9,11.2-20.3,15.1l-1.6,0.9c-6.8,3.6-13.8,7.3-19.2,12.8c-0.9,0.9-1.7,1.8-2.4,2.8c6.5,0.3,14,2.9,18.2,9.6
	c2.4,4,3.1,8.8,1.9,13.3c-1,3.9-3.3,6.9-6.4,8.5c-3.3,1.7-7.2,1.6-10.9-0.1c-4.4-2.1-7.8-6.1-9.1-10.9c-1.7-6.9,0.5-13.8,4-19.1
	c-0.1,0-0.3,0-0.4,0c-10.6,0.8-20.1,6.9-25.5,16.4c-1.4,2.7-2.6,5.4-3.6,8.3c-2.1,5.4-4.3,11.1-8.8,14.8c-6,5.1-14.1,5.1-21.8,5.2
	c-2.7,0-5.5,0-8.2,0.3C463.1-7.8,448.7,2.3,441.9,16.5z M548-54.3c-3.6,5.2-6,12-4.3,18.8c1.2,4.5,4.3,8.2,8.5,10.2
	c3.4,1.6,7,1.7,9.9,0.2c2.8-1.4,4.9-4.2,5.8-7.8c1.1-4.2,0.5-8.7-1.7-12.3C562.6-50.8,555.7-54.2,548-54.3z"/>
<ellipse class="st2" cx="519.1" cy="-35.9" rx="10.3" ry="10.7"/>
<path class="st1" d="M483.6,178H237V56.4h246.6V178z M238.1,176.9h244.3V57.5H238.1V176.9z"/>
<rect x="352.2" y="253.5" class="st1" width="372.1" height="1.2"/>
<path class="st3" d="M645.4,33.9l-3.8,19.6c0,0-4.9,11.2-2.7,19.1l1.6,3.4l10.4-9.5l3.8-26.4L645.4,33.9z"/>
<polygon class="st3" points="624,215.7 618,239.3 625.1,242.6 631.7,237 635.5,219.1 "/>
<polygon class="st3" points="704.6,206.5 707.6,240.4 722.9,240.4 715.6,203.1 "/>
<path class="st4" d="M680.9,81.6l3.1-15.5l-35.9-8.6l-7.7,12.3c0,0-13.1,21.3-16.4,86.4c-3.3,65.1-4.4,64.5-4.4,64.5l26.8,2.8
	l13.7-90.9l33.9,83l25.7-7.3l-32.2-99.9C687.4,108.5,689.6,93.9,680.9,81.6z"/>
<path class="st4" d="M625.7,234.2l-3.8,3.9l-2.2-2.2l1.2-8.2l-6.1,3.8c0,0-10.9-1.7-9.8,10.1c0,0-1.6,3.9,7.7,8.4s14.2,7.3,14.2,7.3
	s8.7-0.6,8.7-3.4c0-2.8-2.8-21.9-2.8-21.9L625.7,234.2z"/>
<path class="st4" d="M714.8,234.2l-3.8,3.9l-2.2-2.2l-2.3-8.2l-2.6,3.8c0,0-10.9-1.7-9.8,10.1c0,0-1.6,3.9,7.7,8.4
	s14.2,7.3,14.2,7.3s8.7-0.6,8.7-3.4c0-2.8-2.8-21.9-2.8-21.9L714.8,234.2z"/>
<ellipse class="st3" cx="671.6" cy="-14.9" rx="15.8" ry="16.3"/>
<polygon class="st3" points="666.7,-2.6 667.8,16.5 688.5,16.5 682.5,-9.3 "/>
<path class="st5" d="M654.6,8.7l16.9-1.1l18,1.1c0,0,15.3,8.4,7.1,31.4c-8.2,23-14.2,30.3-14.2,30.3L665,62.5h-5.5
	c0,0-1.6-1.7-2.2-1.7s-10.9,1.7-10.9,1.7s-2.7-11.8,1.1-12.9s6-7.3,6-7.3L654.6,8.7z"/>
<polygon class="st5" points="657.9,10.3 654.6,8.7 643.2,36.2 655.7,44.6 "/>
<path class="st4" d="M648.9-16.3c0,0-7.7-20.2,7.5-22.1c0,0,19.1-12,31.3,8.1l9.7,24.5l-3.2-0.7l-0.4,3.3l-4.1,2.6l-3.1-3.3l0.5,5
	l-35.5,15.5c0,0,13.4-15.2,8.2-33.2l-2.1,4.4L648.9-16.3z"/>
<path class="st2" d="M375.8,239.2c-2.4,9.2-10.6,14.8-10.6,14.8s-4.3-9.2-1.9-18.4c2.4-9.2,10.6-14.8,10.6-14.8
	S378.2,230,375.8,239.2z"/>
<path class="st2" d="M354.1,239.2c2.4,9.2,10.6,14.8,10.6,14.8s4.3-9.2,1.9-18.4c-2.4-9.2-10.6-14.8-10.6-14.8
	S351.7,230,354.1,239.2z"/>
<path class="st1" d="M357.6,237.2c6.6,6.6,7.4,16.8,7.4,16.8s-9.8-0.6-16.4-7.2c-6.6-6.6-7.4-16.8-7.4-16.8S351.1,230.6,357.6,237.2
	z"/>
<path class="st1" d="M372.3,237.2c-6.6,6.6-7.4,16.8-7.4,16.8s9.8-0.6,16.4-7.2c6.6-6.6,7.4-16.8,7.4-16.8S378.9,230.6,372.3,237.2z
	"/>
<path class="st2" d="M270.5-94.3c5.4-18.3,19.7-32.1,37.6-36.4c-19.4-21.6-52-22.8-72.8-2.6s-21.9,53.9-2.5,75.5
	c12.6,14,31.3,19.9,49.3,15.6C269.5-56.3,265.1-76.1,270.5-94.3z"/>
<path class="st1" d="M342.4-127.4c-8.6-2.8-17.8-3.1-26.6-1c19.4,21.6,18.3,55.4-2.5,75.5c-6.6,6.4-14.7,10.9-23.5,13
	c19.4,21.6,52,22.8,72.8,2.6s21.9-53.9,2.5-75.5C358.9-119.6,351.1-124.7,342.4-127.4L342.4-127.4z"/>
<path class="st5" d="M273.8-93.3c7.2-24.4,24-40.7,37.6-36.4c13.6,4.3,18.8,27.6,11.6,52S299-37,285.4-41.3S266.6-68.9,273.8-93.3z"
	/>
<ellipse class="st2" cx="610.3" cy="-99.6" rx="10.3" ry="10.7"/>
<ellipse class="st2" cx="570.5" cy="-71.5" rx="10.3" ry="10.7"/>
<rect x="267.1" y="78.1" class="st2" width="178.4" height="16.4"/>
<rect x="278.4" y="84.1" class="st1" width="155.8" height="4.4"/>
<ellipse class="st1" cx="356.1" cy="86.1" rx="6" ry="6.2"/>
<rect x="312.7" y="107.4" class="st2" width="93.3" height="46.2"/>
<ellipse class="st6" cx="359.3" cy="130.5" rx="8.6" ry="8.9"/>
<ellipse class="st7" cx="389.3" cy="130.5" rx="8.6" ry="8.9"/>
<ellipse class="st8" cx="329.3" cy="130.5" rx="8.6" ry="8.9"/>
</svg>
