<?xml version="1.0" encoding="utf-8"?>
<!-- Generator: Adobe Illustrator 19.0.0, SVG Export Plug-In . SVG Version: 6.00 Build 0)  -->
<svg version="1.1" id="Layer_1" xmlns="http://www.w3.org/2000/svg" xmlns:xlink="http://www.w3.org/1999/xlink" x="0px" y="0px"
	 viewBox="274 -274 578 578" style="enable-background:new 274 -274 578 578;" xml:space="preserve">
<style type="text/css">
	.st0{fill:#F2F2F2;}
	.st1{fill:#FFFFFF;}
	.st2{fill:#426347;}
	.st3{fill:#C0D8C4;}
	.st4{fill:#EBEBEB;}
	.st5{fill:#223225;}
	.st6{fill:#CECECE;}
</style>
<path class="st0" d="M401.2-224.1c1.3-0.9,2.7-1.7,4-2.6c0.7-0.5,1.3-0.9,2-1.3c29.7-19,62.6-32.3,97.1-39.4c2-0.4,4-0.8,6-1.2
	c38-6.9,77-6.3,114.7,2c2,0.5,4,0.9,6,1.4c34.8,8.4,67.8,23.2,97.1,43.8c0.3,0.2,0.7,0.5,1,0.7c1.7,1.2,3.4,2.4,5,3.6
	c5.1,3.8,10.1,7.7,15,11.8C871.1-102.4,886.6,80,783.7,202c-1.5,1.8-3.1,3.6-4.7,5.4c-23.1,26.1-50.8,47.8-81.6,64.1
	c-0.5,0.2-1.1,0.5-1.6,0.8c-1.3,0.7-2.6,1.3-3.9,2c-5.8,2.9-11.7,5.6-17.7,8.1c-11.4,4.7-23.1,8.7-35,12c-2.3,0.7-4.5,1.2-6.8,1.8
	c-22.7,5.6-46.1,8.4-69.5,8.4c-1.2,0-2.4,0-3.7,0c-0.4,0-0.8,0-1.2,0c-1.1-0.1-2.2-0.1-3.4-0.1c-22.2-0.6-44.3-3.8-65.8-9.5
	c-1.7-0.5-3.4-0.9-5.1-1.4c-16.3-4.6-32.2-10.7-47.5-18.2c-0.7-0.4-1.5-0.7-2.2-1.1c-0.6-0.3-1.2-0.6-1.8-0.9
	c-6-3.1-11.9-6.3-17.7-9.8c-25.2-15.2-48-34-67.5-56c-1.7-1.8-3.3-3.7-4.9-5.6C298,150,273.9,83.9,274,15.7
	C273.9-80.5,321.8-170.4,401.2-224.1z"/>
<g>
	<path class="st1" d="M461.7-150.6c0,15.9,15.6,30.8,40.1,39.2c-4.9,24.7-0.8,44.5,12.6,52.3c13.8,8,34.4,2.5,53.9-14.6
		c19,16.4,38.3,22.9,51.7,15.1c13.8-8,18-29.3,13-54.7c25.6-8.5,39.9-21.1,39.9-37.3c0-15.6-15.6-29.1-39.8-37.4
		c5.4-26.5,0.8-45.9-13.2-54c-13.5-7.8-33-1-52.3,15.8c-20.1-17.8-39.4-23.3-53.4-15.2c-13.5,7.8-17.3,28.1-12.4,53.2
		C478.1-180,461.7-166.2,461.7-150.6z"/>
	<path class="st2" d="M627.9-179.8c-1.9-0.6-4-1.3-6.2-1.9c0.3-1.4,0.6-2.7,0.9-4.1c4.6-22.1,1.6-40-8.6-45.9
		c-9.7-5.6-25.7,0.2-41.9,14.3c-1.6,1.4-3.1,2.8-4.7,4.3c-1-1-2.1-2-3.1-2.9c-16.9-15.1-33.9-21.4-44.1-15.5
		c-9.8,5.7-12.7,22.5-8.6,43.5c0.4,2,0.9,4.1,1.4,6.2c-2.4,0.7-4.7,1.4-6.9,2.2c-19.8,6.9-32.5,17.7-32.5,29
		c0,11.6,13.6,23.2,34.3,30.3c1.7,0.6,3.4,1.1,5.1,1.6c-0.6,2.3-1.1,4.5-1.5,6.7c-3.9,20.7-0.8,37.1,8.9,42.7
		c10.1,5.8,26.9-0.1,43.4-14.5c1.3-1.1,2.6-2.3,3.9-3.6c1.7,1.6,3.4,3.2,5.1,4.6c15.9,13.7,31.7,19.2,41.4,13.6
		c10.1-5.8,13.3-23.5,9.1-44.9c-0.3-1.6-0.7-3.3-1.1-5c1.2-0.4,2.4-0.7,3.5-1.1c21.5-7.1,35.5-18.6,35.5-30.4
		C661.2-161.9,648.2-172.8,627.9-179.8L627.9-179.8L627.9-179.8z"/>
	<path class="st1" d="M623.2-127.8c-1,0.4-2,0.7-3.1,1c-2.4-7.6-5.6-15.5-9.5-23.8c3.7-8.1,6.8-15.9,9.1-23.4
		c1.9,0.6,3.8,1.2,5.6,1.8c17.3,6,27.9,14.8,27.9,21.6C653.2-143.4,641.8-133.9,623.2-127.8L623.2-127.8L623.2-127.8z M615.5-112.5
		c1.9,9.5,2.2,18,0.9,24.9c-1.1,6-3.3,10-6.1,11.6c-5.9,3.4-18.6-1.1-32.2-12.8c-1.5-1.3-3.1-2.8-4.7-4.3c5.3-5.8,10.5-12.5,15.7-20
		c9.1-0.8,17.6-2.1,25.4-3.9C614.9-115.5,615.2-114,615.5-112.5L615.5-112.5L615.5-112.5z M537.7-76.7c-5.8,2-10.4,2.1-13.2,0.4
		c-5.9-3.4-8.4-16.5-5-34.2c0.4-2,0.9-4.1,1.4-6.2c7.7,1.7,16.2,3,25.3,3.7c5.2,7.3,10.6,14,16.1,19.9c-1.2,1.2-2.4,2.3-3.6,3.3
		C551.4-83.5,544.1-79,537.7-76.7L537.7-76.7L537.7-76.7z M510.6-127.8c-9.1-3.1-16.7-7.2-21.9-11.7c-4.7-3.9-7-7.9-7-11.1
		c0-6.9,10.2-15.6,27.2-21.5c2.1-0.7,4.3-1.4,6.5-2c2.3,7.7,5.4,15.6,9.1,23.7c-3.8,8.2-6.9,16.3-9.3,24
		C513.6-126.8,512.1-127.3,510.6-127.8L510.6-127.8L510.6-127.8z M519.7-189.5c-3.5-18-1.2-31.6,4.7-35c6.3-3.7,20.2,1.5,34.8,14.5
		c0.9,0.8,1.9,1.7,2.8,2.6c-5.5,5.9-10.9,12.5-16,19.8c-8.8,0.8-17.2,2.1-25,3.9C520.5-185.7,520.1-187.6,519.7-189.5L519.7-189.5
		L519.7-189.5z M600.6-169.6c-1.9-3.2-3.8-6.3-5.7-9.3c6,0.8,11.7,1.8,17.1,3c-1.6,5.1-3.6,10.5-6,16.1
		C604.3-163.1,602.5-166.3,600.6-169.6L600.6-169.6L600.6-169.6z M567.6-201.7c3.7,4,7.4,8.5,11,13.3c-3.6-0.2-7.4-0.3-11.1-0.3
		s-7.4,0.1-11,0.3C560.1-193.2,563.8-197.7,567.6-201.7L567.6-201.7L567.6-201.7z M534.4-169.5c-1.9,3.2-3.6,6.4-5.3,9.7
		c-2.4-5.5-4.4-10.9-6-16.2c5.4-1.2,11.1-2.2,17-2.9C538.2-175.9,536.3-172.7,534.4-169.5L534.4-169.5L534.4-169.5z M540.3-121.6
		c-6.1-0.7-11.9-1.7-17.3-2.7c1.7-5.4,3.7-10.9,6.1-16.6c1.7,3.2,3.4,6.5,5.3,9.7l0,0C536.3-127.9,538.3-124.7,540.3-121.6
		L540.3-121.6L540.3-121.6z M567.8-98.9c-3.8-4.1-7.6-8.6-11.3-13.4c3.6,0.1,7.3,0.2,11,0.2c3.8,0,7.6-0.1,11.3-0.3
		C575.2-107.5,571.5-102.9,567.8-98.9L567.8-98.9L567.8-98.9z M606-141.3c2.5,5.7,4.6,11.3,6.3,16.4c-5.4,1.3-11.3,2.3-17.5,3
		c2-3,3.9-6.2,5.8-9.5C602.5-134.7,604.3-138,606-141.3L606-141.3L606-141.3z M593.7-135.3c-3,5.1-6,9.9-8.9,14.5
		c-5.6,0.4-11.3,0.6-17.2,0.6c-5.9,0-11.5-0.1-17-0.5c-3.2-4.6-6.3-9.5-9.2-14.5l0,0c-2.9-5-5.6-10.1-8-15.1c2.4-5,5.1-10.1,8-15.1
		l0,0c2.9-5,6-9.9,9.1-14.5c5.6-0.4,11.3-0.6,17.1-0.6l0,0c5.8,0,11.5,0.2,17.1,0.6c3.1,4.6,6.1,9.4,9,14.4c3,5,5.7,10.1,8.1,15
		C599.3-145.5,596.6-140.4,593.7-135.3L593.7-135.3L593.7-135.3z M610.2-224.8c6.3,3.6,8.7,18.2,4.8,37.5c-0.2,1.2-0.5,2.4-0.8,3.7
		c-7.8-1.8-16.3-3.2-25.1-4c-5.2-7.4-10.5-14-15.9-19.8c1.4-1.4,2.9-2.8,4.3-4C591.4-223.4,604.3-228.2,610.2-224.8L610.2-224.8
		L610.2-224.8z"/>
	<path class="st2" d="M567.5-167.3c9.2,0,16.7,7.5,16.7,16.7s-7.5,16.7-16.7,16.7s-16.7-7.5-16.7-16.7S558.3-167.3,567.5-167.3"/>
</g>
<g>
	<polygon class="st2" points="382.2,93.7 439.7,77.7 452.6,-65.7 312,-65.7 324.8,77.8 	"/>
	<polygon class="st3" points="382.3,-54 439.7,-54 428.8,68.6 382.3,81.5 	"/>
	<polygon class="st4" points="382.3,16.8 342.9,16.8 338.6,-31.7 338.1,-36.4 382.2,-36.4 382.3,-36.4 382.3,-18.8 357.4,-18.8 
		359,-0.8 382.3,-0.8 	"/>
	<polygon class="st4" points="382.3,63.2 382.2,63.3 346.1,53.3 343.7,25.6 351.8,25.6 361.3,25.6 362.6,39.7 382.2,44.9 
		382.3,44.9 	"/>
	<path class="st5" d="M325.1-104.7V-78h8.9v-9h8.2v9h8.9v-26.7h-8.9v8.8H334v-8.8H325.1L325.1-104.7z"/>
	<path class="st5" d="M362.9-95.8l0,17.8h8.9v-17.8h7.9v-8.9H355v8.9H362.9L362.9-95.8z"/>
	<path class="st5" d="M383.4-104.7V-78h8.8v-13.2l6.2,9.5h0.2l6.2-9.5V-78h8.9v-26.7h-9.3l-5.7,9.4l-5.7-9.4h-9.4H383.4z"/>
	<path class="st5" d="M418.2-78h21.5v-8.8h-12.6v-17.9h-8.9V-78z"/>
	<polygon class="st1" points="418.4,-0.8 423.1,-0.8 422.7,3.9 418.6,50.3 418.3,53.3 382.2,63.3 382.2,44.9 401.8,39.6 403.9,16.8 
		382.2,16.8 382.2,-0.8 	"/>
	<polygon class="st1" points="426.3,-36.4 425.9,-31.7 425.1,-22.8 424.7,-18.8 424.7,-18.8 424.7,-18.8 382.2,-18.8 382.2,-18.8 
		382.2,-25.5 382.2,-36.4 	"/>
</g>
<g id="XMLID_1_">
	<polygon id="XMLID_11_" class="st2" points="747,92 804.9,75.9 817.7,-68.2 676.5,-68.2 689.3,75.9 	"/>
	<polygon id="XMLID_10_" class="st3" points="747.1,-56.5 804.8,-56.5 793.8,66.7 747.1,79.7 	"/>
	<polygon id="XMLID_35_" class="st1" points="747.1,-22.8 703.2,-3.6 704.5,13.9 770.8,13.9 769.8,37.4 748.2,44 724.8,39.6 
		723.8,24.9 706,24.9 708.5,52.7 748.9,62.5 787.8,52.1 792,-2.8 753.3,-2.8 793.6,-20.5 794.7,-39.9 699.5,-39.9 701.2,-23.2 	"/>
	<g id="XMLID_2_">
		<polygon id="XMLID_39_" class="st6" points="747.1,-22.8 747.1,13.9 704.5,13.9 703.2,-3.6 		"/>
		<polygon id="XMLID_40_" class="st6" points="747.1,43.8 747.1,62.1 708.5,52.7 706,24.9 723.8,24.9 724.8,39.6 		"/>
		<polygon id="XMLID_41_" class="st6" points="747.1,-39.9 747.1,-22.8 701.2,-23.2 699.5,-39.9 		"/>
	</g>
	<g id="XMLID_36_">
		<polygon id="XMLID_34_" class="st5" points="741,-100.8 741,-96.9 759.8,-96.9 759.8,-80.8 733.3,-80.8 733.3,-86.9 752.1,-86.9 
			752.1,-91.9 733.8,-91.9 733.8,-107.4 760.4,-107.4 760.4,-100.8 		"/>
		<polygon id="XMLID_38_" class="st5" points="712.2,-100.8 730.5,-100.8 730.5,-107.4 704.5,-107.4 704.5,-96.8 704.5,-80.8 
			731,-80.8 731,-86.9 712.2,-86.9 712.2,-91.8 		"/>
		<polygon id="XMLID_37_" class="st5" points="770.4,-100.8 770.4,-96.9 789.2,-96.9 789.2,-80.8 762.6,-80.8 762.6,-86.9 
			781.4,-86.9 781.4,-91.9 763.2,-91.9 763.2,-107.4 789.8,-107.4 789.8,-100.8 		"/>
	</g>
</g>
<g>
	<title>HTML5 Logo</title>
	<g>
		<polygon class="st2" points="568.1,285 637.8,265.7 653.3,91.9 483.1,91.9 498.6,265.7 		"/>
		<polygon class="st3" points="568.2,106.1 637.8,106.1 624.5,254.6 568.2,270.2 		"/>
		<polygon class="st4" points="568.2,191.9 520.5,191.9 529.3,127.4 568.1,127.4 568.2,127.4 568.2,148.7 546.8,148.7 543.9,170.6 
			568.2,170.6 		"/>
		<polygon class="st4" points="568.2,248.1 568.1,248.1 524.4,236 521.4,202.5 531.3,202.5 542.8,202.5 544.4,219.5 568.1,225.9 
			568.2,225.9 		"/>
		<polygon class="st1" points="611.9,170.6 617.7,170.6 617.1,176.3 612.1,232.4 611.8,236 568.1,248.1 568.1,225.9 591.9,219.5 
			594.4,191.9 568.1,191.9 568.1,170.6 		"/>
		<polygon class="st1" points="606.9,127.4 614.9,148.7 593.3,148.7 565.4,148.7 568.2,148.7 568.1,140.3 568.2,127.4 		"/>
		<polygon id="XMLID_4_" class="st5" points="579.8,52.7 579.8,58.6 608.3,58.6 608.3,82.9 568.1,82.9 568.1,73.7 596.6,73.7 
			596.6,66.1 569,66.1 569,42.7 609.1,42.7 609.1,52.7 		"/>
		<polygon id="XMLID_3_" class="st5" points="549.4,52.9 549.4,52.9 549.4,43 560.9,43 561,58.9 561.1,82.6 526.2,82.7 526.2,72.3 
			549.5,72.1 549.4,66.4 		"/>
		<polygon class="st1" points="614.9,148.7 591.9,148.7 595.9,162.1 619.6,162.1 		"/>
	</g>
</g>
</svg>
