<?xml version="1.0" encoding="utf-8"?>
<!-- Generator: Adobe Illustrator 19.0.0, SVG Export Plug-In . SVG Version: 6.00 Build 0)  -->
<svg version="1.1" id="Layer_1" xmlns="http://www.w3.org/2000/svg" xmlns:xlink="http://www.w3.org/1999/xlink" x="0px" y="0px"
	 viewBox="189 -189 578 578" style="enable-background:new 189 -189 578 578;" xml:space="preserve">
<style type="text/css">
	.st0{fill:#F2F2F2;}
	.st1{fill:#F1F1F1;}
	.st2{fill:#BBBCBB;}
	.st3{fill:#FFFFFF;}
	.st4{fill:#426347;}
	.st5{fill:#3F3D56;}
	.st6{fill:#CCCCCC;}
	.st7{fill:#FF6583;}
	.st8{fill:#9F616A;}
	.st9{fill:#CBCBCB;}
	.st10{fill:#2F2E41;}
</style>
<path class="st0" d="M767,100c0.1,68.2-24,134.3-68.1,186.3c-1.6,1.9-3.2,3.8-4.9,5.6c-19.5,22-42.3,40.8-67.5,56
	c-5.8,3.5-11.7,6.7-17.7,9.8c-0.6,0.3-1.2,0.6-1.8,0.9c-0.7,0.4-1.5,0.7-2.2,1.1c-15.3,7.5-31.2,13.6-47.5,18.2
	c-1.7,0.5-3.4,0.9-5.1,1.4c-21.5,5.7-43.6,8.9-65.8,9.5c-1.2,0-2.3,0-3.4,0.1c-0.4,0-0.8,0-1.2,0c-1.3,0-2.5,0-3.7,0
	c-23.4,0-46.8-2.8-69.5-8.4c-2.3-0.6-4.5-1.1-6.8-1.8c-11.9-3.3-23.6-7.3-35-12c-6-2.5-11.9-5.2-17.7-8.1c-1.3-0.7-2.6-1.3-3.9-2
	c-0.5-0.3-1.1-0.6-1.6-0.8c-30.8-16.3-58.5-38-81.6-64.1c-1.6-1.8-3.2-3.6-4.7-5.4c-102.9-122-87.4-304.4,34.6-407.3
	c4.9-4.1,9.9-8,15-11.8c1.6-1.2,3.3-2.4,5-3.6c0.3-0.2,0.7-0.5,1-0.7c29.3-20.6,62.3-35.4,97.1-43.8c2-0.5,4-0.9,6-1.4
	c37.7-8.3,76.7-8.9,114.7-2c2,0.4,4,0.8,6,1.2c34.5,7.1,67.4,20.4,97.1,39.4c0.7,0.4,1.3,0.8,2,1.3c1.3,0.9,2.7,1.7,4,2.6
	C719.2-86.1,767.1,3.8,767,100z"/>
<path class="st1" d="M553.3,260.6v-46.2C553.3,214.4,571.3,247.2,553.3,260.6z"/>
<path class="st1" d="M554.4,260.6l-34-31.2C520.4,229.4,556.7,238.3,554.4,260.6z"/>
<rect id="f54375ad-557d-4249-95e2-413e25c77bd8" x="210.1" y="-87.7" class="st2" width="537.2" height="254.9"/>
<rect id="eb84611c-d49d-4ce2-b538-4fee0a7e188d" x="225.5" y="-65.8" class="st3" width="506.5" height="212.7"/>
<rect id="a33b5263-04c3-449f-a8ad-1420252c1e48" x="209.9" y="-102.4" class="st4" width="537.2" height="22.8"/>
<circle id="a01a8c4b-bf8b-4728-9381-d6cbaed15ee5" class="st3" cx="226.8" cy="-91" r="4.2"/>
<circle id="a70f271b-ee75-4447-9507-72af025f0784" class="st3" cx="242.9" cy="-91" r="4.2"/>
<circle id="b6ae4294-4107-4abd-ba05-1d458fcbc8d7" class="st3" cx="258.9" cy="-91" r="4.2"/>
<path id="a98f5d70-28fc-4129-b4f3-463d07786f2f-173" class="st5" d="M308.4-17.4c-1.2,0-2.1,0.9-2.1,2.1s0.9,2.1,2.1,2.1l0,0h57
	c1.2,0,2.1-0.9,2.1-2.1s-0.9-2.1-2.1-2.1H308.4z"/>
<path id="a5717240-4d8d-4c71-83bc-6deeb889f166-174" class="st6" d="M276.2,11.3c-1.2,0-2.1,0.9-2.1,2.1s0.9,2.1,2.1,2.1h121.4
	c1.2,0,2.1-0.9,2.1-2.1s-0.9-2.1-2.1-2.1H276.2z"/>
<path id="f9c6f13d-6e3a-4758-9844-a0f5d5c969ce-175" class="st6" d="M276.2,27.9c-1.2,0-2.1,0.9-2.1,2.1c0,1.2,0.9,2.1,2.1,2.1
	h121.4c1.2,0,2.1-0.9,2.1-2.1c0-1.2-0.9-2.1-2.1-2.1H276.2z"/>
<path id="bf808dfd-2bb2-4793-b7c6-d8671bf7e9b4-176" class="st6" d="M276.2,44.5c-1.2,0-2.1,0.9-2.1,2.1c0,1.2,0.9,2.1,2.1,2.1
	h121.4c1.2,0,2.1-0.9,2.1-2.1c0-1.2-0.9-2.1-2.1-2.1H276.2z"/>
<path id="e27373f7-fd0b-426a-8828-0829b084b689-177" class="st6" d="M276.2,61.1c-1.2,0-2.1,0.9-2.1,2.1c0,1.2,0.9,2.1,2.1,2.1
	h121.4c1.2,0,2.1-0.9,2.1-2.1c0-1.2-0.9-2.1-2.1-2.1H276.2z"/>
<path id="b4c6c7b3-e22e-4fba-a4f6-80d19d07dbd3-178" class="st6" d="M276.2,77.7c-1.2,0-2.1,0.9-2.1,2.1s0.9,2.1,2.1,2.1h121.4
	c1.2,0,2.1-0.9,2.1-2.1s-0.9-2.1-2.1-2.1H276.2z"/>
<path id="ebf0dc46-a6ad-47cb-a3de-ddb71e9e94e3-179" class="st6" d="M276.2,94.3c-1.2,0-2.1,0.9-2.1,2.1s0.9,2.1,2.1,2.1h121.4
	c1.2,0,2.1-0.9,2.1-2.1s-0.9-2.1-2.1-2.1H276.2z"/>
<path class="st1" d="M676.8,99.3H492.9c-2.6,0-4.6-2.1-4.6-4.6V-13.4c0-2.6,2.1-4.6,4.6-4.6h183.8c2.6,0,4.6,2.1,4.6,4.6V94.7
	C681.4,97.3,679.4,99.3,676.8,99.3z"/>
<path class="st3" d="M701,124.1H517.1c-2.6,0-4.6-2.1-4.6-4.6V11.3c0-2.6,2.1-4.6,4.6-4.6H701c2.6,0,4.6,2.1,4.6,4.6v108.1
	C705.6,122,703.5,124.1,701,124.1z"/>
<path class="st5" d="M701,125.6H517.1c-3.4,0-6.2-2.8-6.2-6.2V11.3c0-3.4,2.8-6.2,6.2-6.2H701c3.4,0,6.2,2.8,6.2,6.2v108.1
	C707.2,122.9,704.4,125.6,701,125.6z M517.1,8.2c-1.7,0-3.1,1.4-3.1,3.1v108.1c0,1.7,1.4,3.1,3.1,3.1H701c1.7,0,3.1-1.4,3.1-3.1
	V11.3c0-1.7-1.4-3.1-3.1-3.1L517.1,8.2z"/>
<circle class="st7" cx="608.8" cy="79.7" r="16"/>
<path class="st4" d="M639.6,64.4c-3.9-4.1-10.4-4.3-14.5-0.4c-0.1,0.1-0.1,0.1-0.2,0.2l-51.7,51.7c-6.6,6.7-13.5-3.5-18-7.6
	c-10.6-10.5-22.1,9.2-29.3,14.8h166.3V121L639.6,64.4z"/>
<path class="st8" d="M434.6,127.1l-2.8-38.8l5-36.3l-14.3-1l-2.8,40.1l8,37.7c-1.8,2.5-1.3,6,1.3,7.8c2.5,1.8,6,1.3,7.8-1.3
	c1.8-2.5,1.3-6-1.3-7.8C435.3,127.4,435,127.3,434.6,127.1L434.6,127.1z"/>
<path class="st9" d="M420.8,56.3l3.4-14.5c1.4-6,7.4-9.8,13.4-8.4c5.5,1.3,9.2,6.5,8.6,12.1l-1.8,16.4L420.8,56.3z"/>
<polygon class="st8" points="447.2,253.4 453.9,253.4 457.1,227.5 447.2,227.5 "/>
<path class="st10" d="M445.5,251.2l13.2,0h0c4.7,0,8.4,3.8,8.4,8.4v0.3l-21.7,0L445.5,251.2z"/>
<polygon class="st8" points="480.7,253.2 487.2,251.3 483.1,225.5 473.6,228.2 "/>
<path class="st10" d="M478.5,251.6l12.7-3.6l0,0c4.5-1.3,9.2,1.3,10.4,5.8l0.1,0.3l-20.9,6L478.5,251.6z"/>
<path class="st10" d="M443.6,244l3.1-78.6l-8.1-35.6c-10.9-18.3,0.9-47.6,1-47.9l0-0.1l0.1,0l28.6-3.9l0.4,0.9
	c11.2,25.6,14.3,54,8.9,81.4l-3,15.2l14.7,59.4l-13.9,7l-10.7-27.7l-7.2,28.4L443.6,244z"/>
<path class="st9" d="M435.8,89.2l-9.3-27.3c-5.8-10.2-2.1-19.3,2-25.1c4.4-6.3,4.7-9.8,4.8-9.8l0,0l12.3-0.4l11.3,11.5
	c0.7-0.3,6.7,14.6,6.2,15.3L471,79L435.8,89.2z"/>
<path class="st8" d="M511.3,94l-30.7-23.8l-23.7-28l-10.2,10l28,28.9l33.4,19.2c0.7,3,3.6,5,6.7,4.3c3-0.7,5-3.6,4.3-6.7
	c-0.7-3-3.6-5-6.7-4.3C512,93.7,511.7,93.8,511.3,94L511.3,94z"/>
<path class="st9" d="M443.7,62.3l-8.6-12.2c-3.5-5-2.3-12,2.7-15.6c4.6-3.3,11-2.5,14.8,1.7l11,12.3L443.7,62.3z"/>
<circle class="st8" cx="437.9" cy="8.6" r="14.6"/>
<path class="st10" d="M452.7,1.3h-23.1V-8.8c5.1-2,10-3.7,13,0C448.2-8.8,452.7-4.3,452.7,1.3L452.7,1.3z"/>
<path class="st10" d="M432.8-11.2c-21.2-0.6-17.2,34.3-17.2,34.3s4,0.5,5.8,0.8l2.2-1.2l2.4,1.6c1.1,0,2.2,0,3.4,0l1.1-2.2l2.4,2.2
	c4.4,0,16.4,0.1,16.4,0.1S456.5-10.6,432.8-11.2z"/>
<path class="st9" d="M604.3,260.3H361.2c-0.4,0-0.6-0.3-0.6-0.6c0-0.4,0.3-0.6,0.6-0.6h243.1c0.4,0,0.6,0.3,0.6,0.6
	C605,260,604.7,260.3,604.3,260.3z"/>
</svg>
