<?xml version="1.0" encoding="utf-8"?>
<!-- Generator: Adobe Illustrator 19.0.0, SVG Export Plug-In . SVG Version: 6.00 Build 0)  -->
<svg version="1.1" id="Layer_1" xmlns="http://www.w3.org/2000/svg" xmlns:xlink="http://www.w3.org/1999/xlink" x="0px" y="0px"
	 viewBox="189 -189 578 578" style="enable-background:new 189 -189 578 578;" xml:space="preserve">
<style type="text/css">
	.st0{fill:#F2F2F2;}
	.st1{fill:#84A88B;}
	.st2{fill:#FFFFFF;}
	.st3{fill:#9DA39E;}
	.st4{fill:#3F3D56;}
	.st5{fill:#426347;}
</style>
<path class="st0" d="M766.9,100.1c0.1,68.2-24,134.3-68.1,186.3c-1.6,1.9-3.2,3.8-4.9,5.6c-19.5,22-42.3,40.8-67.5,56
	c-5.8,3.5-11.7,6.7-17.7,9.8c-0.6,0.3-1.2,0.6-1.8,0.9c-0.7,0.4-1.5,0.7-2.2,1.1c-15.3,7.5-31.2,13.6-47.5,18.2
	c-1.7,0.5-3.4,0.9-5.1,1.4c-21.5,5.7-43.6,8.9-65.8,9.5c-1.2,0-2.3,0-3.4,0.1H478c-23.4,0-46.8-2.8-69.5-8.4
	c-2.3-0.6-4.5-1.1-6.8-1.8c-11.9-3.3-23.6-7.3-35-12c-3.5-1.5-6.9-3-10.4-4.6c-2.5-1.1-4.9-2.3-7.3-3.5c-1.3-0.7-2.6-1.3-3.9-2
	c-0.5-0.3-1.1-0.6-1.6-0.8c-30.8-16.3-58.5-38-81.6-64.1c-1.6-1.8-3.2-3.6-4.7-5.4c-12.6-14.9-23.4-30.7-32.4-47.2
	c-65.1-118.2-40-269.8,67-360.1c4.9-4.1,9.9-8,15-11.8c1.6-1.2,3.3-2.4,5-3.6c0.3-0.2,0.7-0.5,1-0.7c29.3-20.6,62.3-35.4,97.1-43.8
	c2-0.5,4-0.9,6-1.4c37.7-8.3,76.7-8.9,114.7-2c2,0.4,4,0.8,6,1.2c34.5,7.1,67.4,20.4,97.1,39.4c0.7,0.4,1.3,0.8,2,1.3
	c1.3,0.9,2.7,1.7,4,2.6C719.1-86,767,3.9,766.9,100.1z"/>
<path class="st1" d="M380.5,357.3l3.2,2.8c-9.1,1.3-18.2,2-27.3,2c-2.5-1.1-4.9-2.3-7.3-3.5c-1.3-0.7-2.6-1.3-3.9-2
	c-0.5-0.3-1.1-0.6-1.6-0.8c-30.8-16.3-58.5-38-81.6-64.1c-1.6-1.8-3.2-3.6-4.7-5.4c-12.6-14.9-23.4-30.7-32.4-47.2
	c12.7-14.5,32.9-21.9,52.1-19.8c20.2,2.2,38.8,14.5,49.5,31.7c11.9,19,14.1,42.2,16.1,64.5c3.6-11.6,17.1-18.6,28.9-16.1
	c11.8,2.5,21,13.6,22.5,25.6C395.3,337.2,389.7,349.5,380.5,357.3z"/>
<path class="st2" d="M242.9,225.9c16.6,13.5,31.9,28.7,45.6,45.2c21.4,25.8,38.7,54.7,51.3,85.7c0.9,2.3-2.8,3.2-3.7,1
	c-8-19.6-18-38.4-29.6-56.1c-18.2-27.6-40.6-52.3-66.2-73.2C238.3,227.1,241,224.4,242.9,225.9z"/>
<path class="st1" d="M386.9,357.4c-9.3-7.8-14.9-20.2-13.4-32.2s10.6-23.1,22.4-25.6s25.3,4.5,28.9,16.1c2-22.3,4.3-45.5,16.1-64.5
	c10.7-17.2,29.3-29.5,49.5-31.7s41.4,6.1,54,22s15.6,39,6.8,57.3c-6.5,13.5-18.4,23.5-31,31.6c-40.5,26.1-89,36.7-136.6,29.9"/>
<path class="st2" d="M524.5,225.9c-16.6,13.5-31.9,28.7-45.6,45.2c-21.4,25.8-38.7,54.7-51.3,85.7c-0.9,2.3,2.8,3.2,3.7,1
	c20.7-50.4,53.6-94.9,95.9-129.3C529.1,227.1,526.4,224.4,524.5,225.9L524.5,225.9z"/>
<circle class="st0" cx="414.3" cy="60" r="31"/>
<path class="st3" d="M321.8-43h210.6v11.5H348.6c-45.4,0-82.2,36.7-82.2,82c0,0,0,0,0,0V181h-23c-2.1,0-3.8-1.7-3.8-3.8V39
	C239.5-6.3,276.3-43,321.8-43C321.8-43,321.8-43,321.8-43z"/>
<path class="st4" d="M359.8,358V180.5h52V358c0,2.5-2,4.5-4.5,4.5h-43C361.8,362.5,359.8,360.5,359.8,358z"/>
<path class="st4" d="M224.3,177V32.7c0.1-47.8,38.8-86.6,86.7-86.7h220.3v236h-302C226.6,182,224.3,179.8,224.3,177z M529.3-52H311
	c-46.7,0.1-84.6,37.9-84.7,84.7V177c0,1.7,1.3,3,3,3h300V-52z"/>
<path class="st5" d="M414.3,76c-9.9,0-18-8.1-18-18V-71c0-1.7-1.3-3-3-3h-70c-2.8,0-5-2.2-5-5v-47c0-2.8,2.2-5,5-5h104
	c2.8,0,5,2.2,5,5V58C432.3,67.9,424.3,76,414.3,76z"/>
<path class="st4" d="M539.3-56L539.3-56c31.4-0.1,56.9,25.3,57,56.8v164.3h112c9.4,0,17,7.6,17,16.9h-243V0.8
	C482.4-30.7,507.9-56.1,539.3-56z"/>
<path class="st2" d="M525.7,37.6l11.8,48.8l230.9-55.9l-11.8-48.8c-0.3-1.2-1.2-2.2-2.4-2.6c-0.4-0.2-0.9-0.2-1.3-0.2L619.4-90.2
	c-1.6-0.8-3.6-0.4-4.7,1.1L550.4,0.6l-24.2,33.8c-0.1,0.1-0.1,0.3-0.1,0.4C525.6,35.7,525.4,36.6,525.7,37.6z"/>
<path class="st4" d="M526.1,34.8c0,0.1,0.1,0.2,0.2,0.3c0.1,0.1,0.3,0.1,0.4,0.1c0.1,0,0.2-0.1,0.3-0.2l0.1-0.1l1.3-1.8l22.9-32
	l64.3-89.7c0.8-1.1,2.2-1.4,3.3-0.8l132.4,68.6l1.2,0.6c0,0,0.1,0,0.1,0.1c0.1,0,0.2,0,0.3,0c0.1,0,0.2-0.1,0.3-0.2
	c0.1-0.3,0-0.6-0.2-0.7c0,0,0,0,0,0l-0.2-0.1L619.4-90.2c-1.6-0.8-3.6-0.4-4.7,1.1L550.4,0.6l-24.2,33.8
	C526.1,34.5,526,34.7,526.1,34.8z"/>
<path class="st1" d="M595.4,39.8l5.1,0.6l38.1,4.2l25.3,2.8l1.5,0.2L697,22.9l1.2-0.9l7.5-5.8l26.5-20.7l0.2-1.5l9.4-85.1
	c0.3-2.4-1.5-4.6-3.9-4.9L612-110c-2.4-0.3-4.6,1.5-4.9,3.9l-6.7,60l-3.7,33.3l-3.3,29.8l-1.5,13.8l-0.4,4
	C591.2,37.3,593,39.5,595.4,39.8z"/>
<path class="st2" d="M630-34.8l54.5,6l19.3,2.1c3.6,0.4,6.8-2.2,7.2-5.8s-2.2-6.8-5.8-7.2l0,0l-24-2.7l-49.8-5.5
	c-3.6-0.4-6.8,2.2-7.2,5.8C623.8-38.4,626.4-35.2,630-34.8z"/>
<path class="st2" d="M626.9-10.7c0.1,0,0.3,0.1,0.4,0.1l63.3,7l10.6,1.2c3.6,0.4,6.8-2.2,7.2-5.8c0.4-3.6-2.2-6.8-5.8-7.2l0,0
	l-15.3-1.7l-50.1-5.6l-8.4-0.9c-3.6-0.4-6.8,2.2-7.2,5.8C621.2-14.4,623.5-11.3,626.9-10.7L626.9-10.7z"/>
<path class="st2" d="M619.7,10.7c1.1,1.7,2.9,2.9,4.9,3.1l25.9,2.9l46.2,5.1l0,0l1.5,0.2l7.5-5.8c0-0.4,0-0.9,0-1.3
	c-0.3-3.1-2.7-5.5-5.8-5.8l-6.4-0.7L668,5.5l-18.3-2L626,0.8c-3.6-0.4-6.8,2.2-7.2,5.8C618.7,8,619,9.5,619.7,10.7L619.7,10.7z"/>
<path class="st2" d="M656.2-64.3l13.6,1.5l6,0.7l9.1,1c3.6,0.4,6.8-2.2,7.2-5.8c0.4-3.6-2.2-6.8-5.8-7.2l0,0l-28.6-3.2
	c-3.6-0.4-6.8,2.2-7.2,5.8C650-67.9,652.6-64.7,656.2-64.3L656.2-64.3L656.2-64.3z"/>
<path class="st5" d="M545.2-28.1l16.5,68.3l27.6,5.2l25.5,4.9l27.4,5.2l8.8,1.7c1,0.2,2.1-0.1,2.9-0.7l7-5.5l4.4-3.5L697,22.9
	L677-60c-0.2-0.8-0.6-1.6-1.2-2.2c-1.1-1.1-2.6-1.5-4.1-1.1L548.5-33.4C546.1-32.9,544.7-30.5,545.2-28.1z"/>
<path class="st2" d="M583.2,26.3c0.9,3.5,4.4,5.7,7.9,4.8l72.2-17.5c3.5-0.9,5.7-4.4,4.8-7.9c0-0.1,0-0.2-0.1-0.2
	c-1-3.4-4.4-5.4-7.8-4.6L588,18.4C584.5,19.2,582.3,22.8,583.2,26.3z"/>
<path class="st2" d="M589.4,45.5l25.5,4.9L669,37.3c3.5-0.8,5.7-4.4,4.8-7.9c-0.8-3.5-4.4-5.7-7.9-4.8L593.7,42
	c-1.5,0.4-2.8,1.3-3.7,2.5C589.7,44.8,589.6,45.2,589.4,45.5z"/>
<path class="st2" d="M642.3,55.6l8.8,1.7c1,0.2,2.1-0.1,2.9-0.7l7-5.5L642.3,55.6z"/>
<path class="st2" d="M597.7-10.4c0.9,3.5,4.4,5.7,7.9,4.8l28-6.8c3.5-0.9,5.7-4.4,4.8-7.9c-0.2-0.9-0.6-1.8-1.2-2.5
	c-1.6-2-4.2-2.9-6.7-2.3l-28,6.8C599-17.4,596.9-13.9,597.7-10.4L597.7-10.4z"/>
<path class="st2" d="M614.9,50.4l27.4,5.2l8.8,1.7c1,0.2,2.1-0.1,2.9-0.7l7-5.5l-2.5,0.6l-5.2,4.1c-0.6,0.5-1.4,0.6-2.1,0.5
	l-6.5-1.2l-27.4-5.2L614.9,50.4z M696.8,21.8l0.3,1.1l1.2-0.9L696.8,21.8z M614.9,50.4l27.4,5.2l8.8,1.7c1,0.2,2.1-0.1,2.9-0.7
	l7-5.5l-2.5,0.6l-5.2,4.1c-0.6,0.5-1.4,0.6-2.1,0.5l-6.5-1.2l-27.4-5.2L614.9,50.4z M614.9,50.4l27.4,5.2l8.8,1.7
	c1,0.2,2.1-0.1,2.9-0.7l7-5.5l-2.5,0.6l-5.2,4.1c-0.6,0.5-1.4,0.6-2.1,0.5l-6.5-1.2l-27.4-5.2L614.9,50.4z M525.7,37.6l30.9,127.7
	c0.5,2,2.5,3.2,4.4,2.7l223.8-54.2c2-0.5,3.2-2.5,2.7-4.4L756.5-18.3c-0.3-1.2-1.2-2.2-2.4-2.6c-0.4-0.2-0.9-0.2-1.3-0.2
	c-0.5,0-1,0.2-1.5,0.4c-0.2,0.1-0.4,0.2-0.6,0.4L732.4-6l-26.7,20.8l-8.9,7l0,0l0,0L664,47.4l-5.4,4.2l-5.2,4.1
	c-0.6,0.5-1.4,0.6-2.1,0.5l-6.5-1.2l-27.4-5.2L590,44.5l-60.1-11.4c-0.5-0.1-1-0.1-1.5,0c-0.7,0.2-1.3,0.5-1.8,1
	c-0.2,0.2-0.4,0.4-0.5,0.7C525.6,35.7,525.4,36.6,525.7,37.6L525.7,37.6z M614.9,50.4l27.4,5.2l8.8,1.7c1,0.2,2.1-0.1,2.9-0.7l7-5.5
	l-2.5,0.6l-5.2,4.1c-0.6,0.5-1.4,0.6-2.1,0.5l-6.5-1.2l-27.4-5.2L614.9,50.4z M614.9,50.4l27.4,5.2l8.8,1.7c1,0.2,2.1-0.1,2.9-0.7
	l7-5.5l-2.5,0.6l-5.2,4.1c-0.6,0.5-1.4,0.6-2.1,0.5l-6.5-1.2l-27.4-5.2L614.9,50.4z M614.9,50.4l27.4,5.2l8.8,1.7
	c1,0.2,2.1-0.1,2.9-0.7l7-5.5l-2.5,0.6l-5.2,4.1c-0.6,0.5-1.4,0.6-2.1,0.5l-6.5-1.2l-27.4-5.2L614.9,50.4z"/>
<path class="st4" d="M614.9,50.4l27.4,5.2l8.8,1.7c1,0.2,2.1-0.1,2.9-0.7l7-5.5l-2.5,0.6l-5.2,4.1c-0.6,0.5-1.4,0.6-2.1,0.5
	l-6.5-1.2l-27.4-5.2L614.9,50.4z M696.8,21.8l0.3,1.1l1.2-0.9L696.8,21.8z M614.9,50.4l27.4,5.2l8.8,1.7c1,0.2,2.1-0.1,2.9-0.7
	l7-5.5l-2.5,0.6l-5.2,4.1c-0.6,0.5-1.4,0.6-2.1,0.5l-6.5-1.2l-27.4-5.2L614.9,50.4z M614.9,50.4l27.4,5.2l8.8,1.7
	c1,0.2,2.1-0.1,2.9-0.7l7-5.5l-2.5,0.6l-5.2,4.1c-0.6,0.5-1.4,0.6-2.1,0.5l-6.5-1.2l-27.4-5.2L614.9,50.4z M527.1,34.9l0.1,0.1
	c0,0,0.1-0.1,0.1-0.1c0.6-0.6,1.5-0.9,2.4-0.8l59.7,11.4l25.5,4.9l27.4,5.2l8.8,1.7c1,0.2,2.1-0.1,2.9-0.7l7-5.5l-2.5,0.6l-5.2,4.1
	c-0.6,0.5-1.4,0.6-2.1,0.5l-6.5-1.2l-27.4-5.2L590,44.5l-60.1-11.4c-0.5-0.1-1-0.1-1.5,0L527.1,34.9z M525.7,37.6l30.9,127.7
	c0.5,2,2.5,3.2,4.4,2.7l223.8-54.2c2-0.5,3.2-2.5,2.7-4.4L756.5-18.3c-0.3-1.2-1.2-2.2-2.4-2.6c-0.4-0.2-0.9-0.2-1.3-0.2
	c-0.5,0-1,0.2-1.5,0.4c-0.2,0.1-0.4,0.2-0.6,0.4L732.4-6l-26.7,20.8l-8.9,7l0,0l0,0L664,47.4l-5.4,4.2l-5.2,4.1
	c-0.6,0.5-1.4,0.6-2.1,0.5l-6.5-1.2l-27.4-5.2L590,44.5l-60.1-11.4c-0.5-0.1-1-0.1-1.5,0c-0.7,0.2-1.3,0.5-1.8,1
	c-0.2,0.2-0.4,0.4-0.5,0.7C525.6,35.7,525.4,36.6,525.7,37.6L525.7,37.6z M526.7,37.3c-0.2-0.8,0-1.6,0.5-2.2c0,0,0.1-0.1,0.1-0.1
	c0,0,0.1-0.1,0.1-0.1c0.6-0.6,1.5-0.9,2.4-0.8l59.7,11.4l25.5,4.9l27.4,5.2l8.8,1.7c1,0.2,2.1-0.1,2.9-0.7l7-5.5l4.4-3.5L697,22.9
	l1.2-0.9l7.4-5.8l26.5-20.7l19.2-15c0.3-0.2,0.6-0.4,1-0.5c0.1,0,0.2,0,0.3-0.1c0.1,0,0.2,0,0.3,0c0.3,0,0.6,0,0.9,0.1
	c0.8,0.3,1.5,1,1.7,1.9l30.9,127.7c0.3,1.4-0.5,2.8-1.9,3.2c0,0,0,0,0,0L560.7,167c-1.4,0.3-2.8-0.5-3.2-1.9L526.7,37.3z
	 M614.9,50.4l27.4,5.2l8.8,1.7c1,0.2,2.1-0.1,2.9-0.7l7-5.5l-2.5,0.6l-5.2,4.1c-0.6,0.5-1.4,0.6-2.1,0.5l-6.5-1.2l-27.4-5.2
	L614.9,50.4z M614.9,50.4l27.4,5.2l8.8,1.7c1,0.2,2.1-0.1,2.9-0.7l7-5.5l-2.5,0.6l-5.2,4.1c-0.6,0.5-1.4,0.6-2.1,0.5l-6.5-1.2
	l-27.4-5.2L614.9,50.4z M614.9,50.4l27.4,5.2l8.8,1.7c1,0.2,2.1-0.1,2.9-0.7l7-5.5l-2.5,0.6l-5.2,4.1c-0.6,0.5-1.4,0.6-2.1,0.5
	l-6.5-1.2l-27.4-5.2L614.9,50.4z"/>
<path class="st5" d="M726.4,88.7c-1-4.4,1.6-8.7,6-9.8l28.2-6.8c4.4-1,8.7,1.7,9.8,6c1,4.3-1.6,8.7-6,9.8l-28.2,6.8
	C731.9,95.7,727.5,93.1,726.4,88.7z"/>
<circle class="st2" cx="414.3" cy="58" r="7"/>
</svg>
