<?xml version="1.0" encoding="utf-8"?>
<!-- Generator: Adobe Illustrator 19.0.0, SVG Export Plug-In . SVG Version: 6.00 Build 0)  -->
<svg version="1.1" id="Layer_1" xmlns="http://www.w3.org/2000/svg" xmlns:xlink="http://www.w3.org/1999/xlink" x="0px" y="0px"
	 viewBox="189 -189 578 578" style="enable-background:new 189 -189 578 578;" xml:space="preserve">
<style type="text/css">
	.st0{fill:#F2F2F2;}
	.st1{fill:#FEB8B8;}
	.st2{fill:#CCCCCC;}
	.st3{fill:#2F2E41;}
	.st4{fill:#CACACA;}
	.st5{fill:#3F3D56;}
	.st6{fill:#FFFFFF;}
	.st7{fill:#E6E6E6;}
	.st8{fill:#FF6584;}
	.st9{fill:#426347;}
</style>
<path class="st0" d="M767,100c0.1,68.2-24,134.3-68.1,186.3c-1.6,1.9-3.2,3.8-4.9,5.6c-19.5,22-42.3,40.8-67.5,56
	c-5.8,3.5-11.7,6.7-17.7,9.8c-0.6,0.3-1.2,0.6-1.8,0.9c-0.7,0.4-1.5,0.7-2.2,1.1c-15.3,7.5-31.2,13.6-47.5,18.2
	c-1.7,0.5-3.4,0.9-5.1,1.4c-21.5,5.7-43.6,8.9-65.8,9.5c-1.2,0-2.3,0-3.4,0.1c-0.4,0-0.8,0-1.2,0c-1.3,0-2.5,0-3.7,0
	c-23.4,0-46.8-2.8-69.5-8.4c-2.3-0.6-4.5-1.1-6.8-1.8c-11.9-3.3-23.6-7.3-35-12c-6-2.5-11.9-5.2-17.7-8.1c-1.3-0.7-2.6-1.3-3.9-2
	c-0.5-0.3-1.1-0.6-1.6-0.8c-30.8-16.3-58.5-38-81.6-64.1c-1.6-1.8-3.2-3.6-4.7-5.4c-102.9-122-87.4-304.4,34.6-407.3
	c4.9-4.1,9.9-8,15-11.8c1.6-1.2,3.3-2.4,5-3.6c0.3-0.2,0.7-0.5,1-0.7c29.3-20.6,62.3-35.4,97.1-43.8c2-0.5,4-0.9,6-1.4
	c37.7-8.3,76.7-8.9,114.7-2c2,0.4,4,0.8,6,1.2c34.5,7.1,67.4,20.4,97.1,39.4c0.7,0.4,1.3,0.8,2,1.3c1.3,0.9,2.7,1.7,4,2.6
	C719.2-86.1,767.1,3.8,767,100z"/>
<g id="fe98ab94-e9cb-45d5-93d2-a323ca3f1bc1">
	<path id="af195c9f-bb19-4a02-bf73-25c746785d44-553" class="st1" d="M357.9,123.7c-2.1,3.4-6.5,4.5-9.9,2.5
		c-2.9-1.7-4.2-5.2-3.2-8.4L317,60.5l13.3-8.1l24.1,60.8c0.1,0,0.2,0.1,0.3,0.1c0.1,0,0.2,0.1,0.3,0.1l0.3,0.1
		c0.1,0,0.2,0.1,0.3,0.1C358.9,115.8,360,120.3,357.9,123.7L357.9,123.7z"/>
	<path id="b7be7d01-601a-466d-ae41-9577dbbca8ac-554" class="st2" d="M322.3,82.6l19.8-5.1c0,0-0.6-1.5-1.7-3.9
		c-1.1-2.4-2.5-5.8-4.2-9.6c-1.7-3.8-3.5-8.1-5.3-12.4s-3.5-8.4-5-12c-1.5-3.6-3.1-5.8-4.8-7c-1.4-1.1-3.1-1.5-4.9-1.3
		c-1.3,0.2-2.6,0.7-3.8,1.4c-0.5,0.3-1,0.7-1.5,1.1l-4.6,8.3L322.3,82.6z"/>
	<path id="b3095e15-ab7d-4e65-96a4-41698fa4f221-555" class="st1" d="M302.6,236.8l12.1,0l-3.9,31.7l-8.2,0V236.8z"/>
	<path id="a302ec2b-66fd-4123-9cb3-cd16e4233762-556" class="st3" d="M300.5,276.5l26.5-0.1V276c0-0.7-0.1-1.4-0.2-2
		c-0.3-1.3-0.8-2.6-1.5-3.7c-0.8-1.1-1.7-2.1-2.9-2.8c-1.1-0.7-2.4-1.3-3.7-1.5c-0.7-0.1-1.3-0.2-2-0.2l0,0l-16.2,0.1L300.5,276.5z"
		/>
	<path id="aeeb1cd5-fa3a-4274-bafd-7f40084de8d2-557" class="st1" d="M341.4,236.7l12.1,0l-3.9,31.6l-8.2,0L341.4,236.7z"/>
	<path id="ba1e98ed-d8f2-43c1-be39-19244e87f429-558" class="st3" d="M339.3,276.3l26.4-0.1v-0.3c0-0.7-0.1-1.4-0.2-2
		c-0.3-1.3-0.8-2.6-1.5-3.7c-0.8-1.1-1.7-2.1-2.9-2.8c-1.1-0.7-2.4-1.3-3.7-1.5c-0.7-0.1-1.3-0.2-2-0.2l0,0l-16.1,0.1L339.3,276.3z"
		/>
	<path id="a155f794-21b2-443d-9e35-67d51870e068-559" class="st3" d="M341.9,107.3l20.3,75.8l-7.4,72.7l-16.5,0.5l3.6-65.6
		l-20.5-32.8l-4.5,98.8l-14.9-1.1l-8.3-85c-2.8-6.6-4.9-13.6-6.2-20.7c-1-5.6-1.5-11.2-1.5-16.9c0-3.8,0.3-7.6,0.9-11.4
		c0.2-1.4,0.5-2.8,0.8-4.2l6.1-6.1L341.9,107.3z"/>
	<path id="fa92fe00-8265-4df9-92a2-5e4b8684f88d-560" class="st2" d="M315,120c3.4,0,6.6-0.1,9.5-0.3c3-0.2,5.9-0.6,8.8-1.2
		c2.5-0.5,4.9-1.2,7.2-2.3c1.9-0.8,3.5-2.1,4.7-3.7l0.1-0.2l-5.6-36.1l-6-40.6c-0.8-5.6-5.7-9.6-11.3-9.5l-18.8,0.6
		c-5.8,0.2-10.4,5-10.2,10.8c0,0.1,0,0.2,0,0.3l2.5,40.4l-9.1,39.9l0.6,0.1c0.3,0,1.3,0.2,2.8,0.3c2,0.2,4.1,0.4,6.2,0.6
		c2.9,0.3,5.8,0.5,8.5,0.6C308.7,119.9,312,120,315,120z"/>
	<path id="a02ac6ff-2f2c-46ae-a320-a92bb579f594-561" class="st3" d="M325.4,18.9L325.4,18.9c1.7,0,3-1.3,3-3V-0.8
		c0-3-0.6-6-1.8-8.7c-2.3-5.4-6.6-9.7-11.9-12c-11.3-4.9-24.5,0.4-29.4,11.7c-1.2,2.8-1.8,5.8-1.8,8.8v16.7c0,0.4,0.1,0.8,0.2,1.2
		c0.3,0.7,0.9,1.3,1.6,1.6c0.4,0.2,0.8,0.2,1.2,0.2L325.4,18.9L325.4,18.9z"/>
	<path id="a9c6a018-88fd-40d4-8b44-5495c2df83a6-562" class="st1" d="M295.9-6.6c-4.4,8-1.4,18,6.5,22.4c3.8,2.1,8.3,2.6,12.5,1.4
		c4.2-1.2,7.7-4,9.8-7.9c4.4-8,1.4-18-6.6-22.4c-3.8-2.1-8.3-2.6-12.5-1.4C301.5-13.2,298-10.4,295.9-6.6L295.9-6.6z"/>
	<path id="a5ddc204-0839-488c-806a-2c44d9da4652-563" class="st3" d="M333.7,0.5c0-2.4-0.5-4.7-1.4-6.9c-1.8-4.3-5.2-7.7-9.4-9.5
		c-2.2-0.9-4.5-1.4-6.9-1.4l-3.3,0h-0.1c-9.7,0-17.6,7.9-17.6,17.7v0.3l7.1,0l2.4-6.7l0.5,6.8l3.7,0l1.2-3.4l0.2,3.4l23.7,0.1
		L333.7,0.5z"/>
	<path id="b53d3ad0-d874-44f4-8830-ebcf508c0715-564" class="st1" d="M362.2,35.7c1.1,0.3,2.1,0.8,3,1.5c0.7,0.5,1.3,1.2,1.7,1.9
		c0.9,1.5,1.3,3.2,1.1,4.9c-0.1,0.9-0.3,1.7-0.7,2.5c-1.8,3.8-6.4,5.5-10.2,3.7c-0.3-0.1-0.5-0.3-0.8-0.4c-0.1,0-0.1-0.1-0.2-0.1
		c-0.1,0-0.1-0.1-0.2-0.1c-0.1,0-0.1-0.1-0.2-0.1c-0.1,0-0.1-0.1-0.2-0.1l-39.1,13.9c-2.5,0.9-5.2,0-6.8-2.1l-9.3-12.8l11.2-7.5
		l5.9,6.7l35.8-7.1c0-0.1,0.1-0.2,0.1-0.3s0.1-0.2,0.1-0.3c0-0.1,0.1-0.2,0.1-0.3s0.1-0.2,0.2-0.3C355.6,36.3,359,34.9,362.2,35.7
		L362.2,35.7z"/>
	<path id="ea3ff0db-56f9-49fe-a255-68dfaf7efedd-565" class="st2" d="M317,43.1c-1.2-1.5-2.8-3.4-4.5-5.2s-3.3-3.7-4.6-5.1
		s-2.1-2.3-2.1-2.3c-2.8-4.2-8.5-5.4-12.8-2.6c-3.1,2-4.7,5.7-4,9.4c0.2,1.2,0.7,2.3,1.4,3.4c0,0,1.3,1.7,3.2,4.2s4.5,5.8,7.1,9.1
		c2.6,3.3,5.2,6.6,7.2,9c2,2.4,3.4,4,3.6,3.8l7.1-21C318.8,45.6,318.1,44.6,317,43.1z"/>
	<path id="a9611ebe-3bd3-473e-9d8d-437c05f39574-566" class="st3" d="M312.8,18.3c0.1,0.5,0.1,1.1-0.1,1.6c-0.1,0.3-0.2,0.5-0.4,0.7
		c-0.1,0.2-0.3,0.4-0.5,0.5c-0.5,0.5-1.2,0.7-1.9,0.7c0,0-0.1,0-0.1,0c0,0-0.1,0-0.1,0c0,0-0.1,0-0.1,0c0,0-0.1,0-0.1,0l-2.5-0.5
		l-3.5-7.4v6.8l-11.4-2.1V-10L311-9.9l-0.5,0.6c-1.6,1.8-2.6,4.1-3,6.5c-0.4,2.4-0.3,4.9,0.1,7.3c0.4,2.4,1.1,4.8,2,7.1
		c0.8,2,1.7,4,2.7,6C312.6,17.8,312.7,18.1,312.8,18.3z"/>
</g>
<path id="b86d4de9-0cff-4c8a-ba1d-90db5f791b61-567" class="st4" d="M735,277.9H242.2v-1.4h493.5L735,277.9z"/>
<path id="a91d7220-8c5a-4469-a964-f9fb6eeff2ab-568" class="st5" d="M604.4-84.8h-2.6v-71.3c0-22.8-18.5-41.3-41.3-41.3H409.4
	c-22.8,0-41.3,18.5-41.3,41.3v391.3c0,22.8,18.5,41.3,41.3,41.3h151.1c22.8,0,41.3-18.5,41.3-41.3V-34h2.6L604.4-84.8z"/>
<path id="bf5182e6-9a46-4ce3-a6bb-8e5b95c0b95d-569" class="st6" d="M593.4-158.8V238c0,17.3-14,31.3-31.3,31.3H407.9
	c-17.3,0-31.3-14-31.3-31.3v-396.8c0-17.3,14-31.3,31.3-31.3h18.7c-3.1,7.6,0.6,16.3,8.2,19.4c1.8,0.7,3.7,1.1,5.6,1.1h87.9
	c8.2,0,14.9-6.7,14.9-14.9c0-1.9-0.4-3.8-1.1-5.6h20C579.4-190.1,593.4-176.1,593.4-158.8L593.4-158.8z"/>
<path id="befb231b-3654-4dfe-ba25-bde2f69c3c75-570" class="st2" d="M486.6-0.1c-36.6,0-66.2-29.6-66.2-66.2v-0.1c0-0.1,0-0.3,0-0.4
	c0.2-36.3,29.9-65.8,66.2-65.8c36.6,0,66.2,29.6,66.2,66.2S523.2-0.1,486.6-0.1L486.6-0.1L486.6-0.1z M486.6-131.2
	c-35.6,0.1-64.5,28.8-64.8,64.5c0,0.1,0,0.3,0,0.4c0,35.8,29,64.8,64.8,64.8c35.8,0,64.8-29,64.8-64.8
	C551.5-102.1,522.5-131.2,486.6-131.2L486.6-131.2L486.6-131.2z"/>
<path id="fe627b68-f6c4-4b39-818a-896f79516f98-571" class="st7" d="M555.1,69.5h-137c-1.4,0-2.5-1.1-2.5-2.5V33
	c0-1.4,1.1-2.5,2.5-2.5h137c1.4,0,2.5,1.1,2.5,2.5v34C557.7,68.4,556.5,69.5,555.1,69.5L555.1,69.5z M418.1,31.5
	c-0.8,0-1.5,0.7-1.5,1.5v34c0,0.8,0.7,1.5,1.5,1.5h137c0.8,0,1.5-0.7,1.5-1.5V33c0-0.8-0.7-1.5-1.5-1.5L418.1,31.5z"/>
<circle id="efff077a-6dff-49bd-9bfe-dfa54dc61d00" class="st2" cx="435.9" cy="50" r="10.7"/>
<path id="e513cc1a-fc4f-42ad-8a97-aa208a4af049-572" class="st7" d="M460.5,42.9c-1,0-1.8,0.8-1.8,1.8c0,1,0.8,1.8,1.8,1.8h83.7
	c1,0,1.8-0.7,1.8-1.7c0-1-0.7-1.8-1.7-1.8l0,0c0,0-0.1,0-0.1,0L460.5,42.9L460.5,42.9z"/>
<path id="bb8a7882-db95-48e4-aaaf-3489ee3aa336-573" class="st7" d="M460.5,53.5c-1,0-1.8,0.8-1.8,1.8c0,1,0.8,1.8,1.8,1.8h83.7
	c1,0,1.8-0.7,1.8-1.7c0-1-0.7-1.8-1.7-1.8l0,0c0,0-0.1,0-0.1,0L460.5,53.5L460.5,53.5z"/>
<path id="af101daf-449f-4d16-aa98-172f4a8df39f-574" class="st7" d="M555.1,126.4h-137c-1.4,0-2.5-1.1-2.5-2.5v-34
	c0-1.4,1.1-2.5,2.5-2.5h137c1.4,0,2.5,1.1,2.5,2.5v34C557.7,125.2,556.5,126.4,555.1,126.4z M418.1,88.3c-0.8,0-1.5,0.7-1.5,1.5v34
	c0,0.8,0.7,1.5,1.5,1.5h137c0.8,0,1.5-0.7,1.5-1.5v-34c0-0.8-0.7-1.5-1.5-1.5H418.1z"/>
<circle id="a7593987-c694-475c-8cff-40adb8bae00c" class="st2" cx="435.9" cy="106.8" r="10.7"/>
<path id="ad8313dd-202d-4f4d-8eaf-20c5dd40192b-575" class="st7" d="M460.5,99.7c-1,0-1.8,0.8-1.8,1.8c0,1,0.8,1.8,1.8,1.8h83.7
	c1,0,1.8-0.8,1.8-1.8c0-1-0.8-1.7-1.7-1.8L460.5,99.7L460.5,99.7z"/>
<path id="bde7542a-4575-40bb-a917-747fdde14d1d-576" class="st7" d="M460.5,110.4c-1,0-1.8,0.8-1.8,1.8c0,1,0.8,1.8,1.8,1.8h83.7
	c1,0,1.8-0.8,1.8-1.8c0-1-0.8-1.7-1.7-1.8L460.5,110.4L460.5,110.4z"/>
<path id="a41ae643-d6fa-4218-bc02-a84cd2f042d5-577" class="st7" d="M555.1,183.2h-137c-1.4,0-2.5-1.1-2.5-2.5v-34
	c0-1.4,1.1-2.5,2.5-2.5h137c1.4,0,2.5,1.1,2.5,2.5v34C557.7,182.1,556.5,183.2,555.1,183.2L555.1,183.2z M418.1,145.2
	c-0.8,0-1.5,0.7-1.5,1.5v34c0,0.8,0.7,1.5,1.5,1.5h137c0.8,0,1.5-0.7,1.5-1.5v-34c0-0.8-0.7-1.5-1.5-1.5H418.1z"/>
<circle id="eb2f5380-5bf4-43e0-97aa-e300553d76c9" class="st2" cx="435.9" cy="163.7" r="10.7"/>
<path id="ef612e73-fc19-47d8-a2d1-12e834e71e5a-578" class="st7" d="M460.5,156.6c-1,0-1.8,0.8-1.8,1.8c0,1,0.8,1.8,1.8,1.8h83.7
	c1,0,1.8-0.7,1.8-1.7c0-1-0.7-1.8-1.7-1.8c0,0-0.1,0-0.1,0L460.5,156.6L460.5,156.6z"/>
<path id="ad1dc7cf-bcbc-43ff-98c3-5442d39a009f-579" class="st7" d="M460.5,167.2c-1,0-1.8,0.8-1.8,1.8c0,1,0.8,1.8,1.8,1.8h83.7
	c1,0,1.8-0.7,1.8-1.7c0-1-0.7-1.8-1.7-1.8l0,0c0,0-0.1,0-0.1,0L460.5,167.2L460.5,167.2z"/>
<path id="b33d3e33-77f1-4447-818b-aa04c3ab1cfa-580" class="st8" d="M404.5,91h25.3c1.6-11.7-1.9-22.5,0-30.3h-25.3
	C399.7,70.8,399.7,80.9,404.5,91z"/>
<path id="abd26155-66b6-4810-8bdf-9fb8037578d3-581" class="st9" d="M568.5,149.5h-25.3c0.9-11.7,4-22.5,0-30.3h25.3
	C573.3,129.3,573.3,139.4,568.5,149.5z"/>
<path id="aae68d36-acd6-4520-9385-77d0caf729f0-582" class="st9" d="M521.8,208.2h-25.3c0.9-11.7,4-22.5,0-30.3h25.3
	C526.5,188,526.5,198.1,521.8,208.2z"/>
<path id="b809e61f-e113-4687-852e-0d1aa1d72eef-583" class="st9" d="M520.5-9.2c-21.2,12.9-48,12-68.4-2.1
	c4.3-9,13.3-14.7,23.3-14.7h21C507.1-26,516.7-19.3,520.5-9.2L520.5-9.2z"/>
<g id="b4b23dfd-a70a-4bfa-a0ec-e0b9fbca8bb1">
	<path id="f2763f3e-78f9-4b43-a903-a3fe53ad4a45-584" class="st3" d="M458-70c3.2-10.1,10.4-19.4,20.4-22.8s27.4-0.2,32.1,9.3
		c6.8,13.7,3.7,30.4,0.1,45.3c-1.9-0.1-3.8-0.2-5.7-0.2l-2.7-8.9v8.9c-14.8-0.5-30.2-0.2-45.7,0.1C455.2-49,454.9-59.9,458-70z"/>
	<circle id="eecf4506-21ab-40dd-8b32-4db21377c650" class="st1" cx="479.8" cy="-60.2" r="22.7"/>
	<path id="bb1dea60-cbdf-449a-8984-6a3a37f92790-585" class="st3" d="M464.9-87.5c12.7-7.7,29.2-3.7,36.9,9c2.7,4.4,4,9.4,3.9,14.5
		c-12,0.6-24.5,0.7-37.3,0.7l-3-7.4l-1.8,7.4c-3.9,0-7.8,0-11.7,0C451.8-73.2,456.7-82.4,464.9-87.5z"/>
</g>
<path id="a34394a5-3b6f-4dbd-b680-62200c75c4a0-586" class="st9" d="M691.8,256.4c-0.2,6.7-1.3,13.3-3.3,19.6c0,0.1-0.1,0.3-0.1,0.4
	H676c0-0.1,0-0.3,0-0.4c0.8-9.5,5.6-67.1-0.1-77C676.4,199.8,692.7,226.3,691.8,256.4z"/>
<path id="a4311caa-1619-4625-9a30-9ee577173a6d-587" class="st9" d="M689.8,275.5c-0.2,0.3-0.4,0.6-0.7,0.9h-19.4
	c0.1-0.3,0.3-0.6,0.5-0.9c3.2-5.8,12.7-23.1,21.5-41c9.5-19.3,18.1-39.3,17.4-46.5C709.4,189.7,715.9,239.4,689.8,275.5z"/>
</svg>
