<?xml version="1.0" encoding="utf-8"?>
<!-- Generator: Adobe Illustrator 19.0.0, SVG Export Plug-In . SVG Version: 6.00 Build 0)  -->
<svg version="1.1" id="Layer_1" xmlns="http://www.w3.org/2000/svg" xmlns:xlink="http://www.w3.org/1999/xlink" x="0px" y="0px"
	 viewBox="189 -189 578 578" style="enable-background:new 189 -189 578 578;" xml:space="preserve">
<style type="text/css">
	.st0{fill:#F2F2F2;}
	.st1{fill:#FFFFFF;}
	.st2{fill:#E4E4E4;}
	.st3{fill:#CACACA;}
	.st4{fill:#426347;}
	.st5{fill:#3F3D56;}
	.st6{fill:#FFB6B6;}
	.st7{fill:#2F2E41;}
</style>
<path class="st0" d="M767,100c0.1,68.2-24,134.3-68.1,186.3c-1.6,1.9-3.2,3.8-4.9,5.6c-19.5,22-42.3,40.8-67.5,56
	c-5.8,3.5-11.7,6.7-17.7,9.8c-0.6,0.3-1.2,0.6-1.8,0.9c-0.7,0.4-1.5,0.7-2.2,1.1c-15.3,7.5-31.2,13.6-47.5,18.2
	c-1.7,0.5-3.4,0.9-5.1,1.4c-21.5,5.7-43.6,8.9-65.8,9.5c-1.2,0-2.3,0-3.4,0.1c-0.4,0-0.8,0-1.2,0c-1.3,0-2.5,0-3.7,0
	c-23.4,0-46.8-2.8-69.5-8.4c-2.3-0.6-4.5-1.1-6.8-1.8c-11.9-3.3-23.6-7.3-35-12c-6-2.5-11.9-5.2-17.7-8.1c-1.3-0.7-2.6-1.3-3.9-2
	c-0.5-0.3-1.1-0.6-1.6-0.8c-30.8-16.3-58.5-38-81.6-64.1c-1.6-1.8-3.2-3.6-4.7-5.4c-102.9-122-87.4-304.4,34.6-407.3
	c4.9-4.1,9.9-8,15-11.8c1.6-1.2,3.3-2.4,5-3.6c0.3-0.2,0.7-0.5,1-0.7c29.3-20.6,62.3-35.4,97.1-43.8c2-0.5,4-0.9,6-1.4
	c37.7-8.3,76.7-8.9,114.7-2c2,0.4,4,0.8,6,1.2c34.5,7.1,67.4,20.4,97.1,39.4c0.7,0.4,1.3,0.8,2,1.3c1.3,0.9,2.7,1.7,4,2.6
	C719.2-86.1,767.1,3.8,767,100z"/>
<path class="st1" d="M651.5,14h-246v-130.9h246V14z"/>
<rect x="406.4" y="-116.1" class="st2" width="244.8" height="31.1"/>
<path class="st3" d="M651.5,14h-246v-130.9h246V14z M407.3,12.2h242.5v-127.4H407.3V12.2z"/>
<path id="b31be23e-8cea-40b3-88e7-702b78781d59-458" class="st2" d="M516.5-59c-1.2,0-2.1,1.5-2.1,3.4c0,1.9,0.9,3.4,2.1,3.4h99.3
	c1.2,0,2.1-1.5,2.1-3.4c0-1.9-0.9-3.4-2.1-3.4H516.5z"/>
<path id="aa955060-a795-42b6-a949-85ffda920310-459" class="st2" d="M516.5-39.5c-1.2,0-2.1,1.5-2.1,3.4c0,1.9,0.9,3.4,2.1,3.4h99.3
	c1.2,0,2.1-1.5,2.1-3.4c0-1.9-0.9-3.4-2.1-3.4L516.5-39.5z"/>
<path id="fc73c397-cba7-486e-aa16-1153498538f8-460" class="st2" d="M516.5-20.2c-1.2,0-2.1,1.5-2.1,3.4c0,1.9,0.9,3.4,2.1,3.4h42.7
	c1.2,0,2.1-1.5,2.1-3.4c0-1.9-0.9-3.4-2.1-3.4H516.5z"/>
<circle class="st2" cx="466.1" cy="-36.5" r="26.9"/>
<path class="st1" d="M537.9,142.3H226.2V-23.6h311.7V142.3z"/>
<rect x="227.3" y="-22.5" class="st4" width="310.2" height="39.4"/>
<path class="st5" d="M537.9,142.3H226.2V-23.6h311.7V142.3z M228.4,140.1h307.2V-21.3H228.4V140.1z"/>
<path id="ae5ce118-c16e-4762-944a-d3eac5dda4be-461" class="st2" d="M366.8,49.9c-1.5,0-2.7,1.9-2.7,4.3c0,2.3,1.2,4.3,2.7,4.3
	h125.8c1.5,0,2.7-1.9,2.7-4.3c0-2.3-1.2-4.3-2.7-4.3H366.8z"/>
<path id="e85b2a84-e751-44d6-98f8-0a9fef92eb89-462" class="st2" d="M366.8,74.6c-1.5,0-2.7,1.9-2.7,4.3c0,2.3,1.2,4.3,2.7,4.3
	h125.8c1.5,0,2.7-1.9,2.7-4.3c0-2.3-1.2-4.3-2.7-4.3H366.8z"/>
<path id="fdff5968-d41d-4113-bbcc-d74a10bcc1ca-463" class="st2" d="M366.8,99c-1.5,0-2.7,1.9-2.7,4.3c0,2.3,1.2,4.3,2.7,4.3h54.1
	c1.5,0,2.7-1.9,2.7-4.3c0-2.3-1.2-4.3-2.7-4.3H366.8z"/>
<circle class="st2" cx="302.9" cy="78.4" r="34.1"/>
<polygon class="st6" points="671.5,334.7 663.1,338.4 644.8,308 657.1,302.5 "/>
<path class="st7" d="M677.2,341.8l-26.9,12l-0.2-0.3c-2.6-5.8,0-12.5,5.8-15.1l0,0l16.4-7.3L677.2,341.8z"/>
<path class="st6" d="M629.5,164.8c3.2-3.1,3.3-8.1,0.2-11.3c-0.3-0.3-0.7-0.6-1.1-0.9l-8.8-72.2L606,83.7l11,71.1
	c-2.4,3.8-1.2,8.7,2.5,11.1C622.7,167.8,626.8,167.3,629.5,164.8L629.5,164.8z"/>
<path class="st4" d="M624.8,91.9c-0.6,0.6-1.4,0.9-2.3,1l-18,1.8c-2.2,0.2-4.1-1.4-4.3-3.5c0-0.2,0-0.4,0-0.6l0.8-18
	c-0.3-2.7,0.6-5.4,2.3-7.5c3.6-4.4,10.1-5.1,14.5-1.5c2.1,1.7,3.5,4.2,3.7,7l4.4,17.4C626.3,89.4,625.8,90.9,624.8,91.9z"/>
<path class="st4" d="M613.5,137.9l-50.1-10l-0.3-7l0,0l5.4-35.9c-0.7-1.5-7.1-15.7,2.2-23.6c2.2-1.9,4.2-3.9,6.1-6.2
	c5.9-7.4,15.1-11.4,24.5-10.8c5.8,0.5,11.2,3.5,14.6,8.2c3.7,5,5.4,11.2,4.7,17.3L613.5,137.9z"/>
<polygon class="st6" points="563,344.9 553.9,344.9 549.6,309.7 563,309.7 "/>
<path class="st7" d="M565.3,353.8l-29.4,0v-0.4c0-6.3,5.1-11.4,11.4-11.4h0l18,0L565.3,353.8z"/>
<path class="st7" d="M549,331.3l-2-146.5c-0.6-21.9,5.1-43.5,16.5-62.2l0,0c0,0,44.3-0.4,51.3,14.9l52.8,183.7l-14.9,6.7
	l-63.2-137.6L566.9,332L549,331.3z"/>
<path class="st6" d="M541.8,85.8c0.3,0.3,0.6,0.7,0.9,1.1l41.4,0l5.1-8.7l14.1,5.9l-7.5,16.3c-1.2,2.7-4.1,4.3-7,3.8l-46.6-6.8
	c-3.1,3.7-8.6,4.2-12.4,1.1c-3.7-3.1-4.2-8.6-1.1-12.4c3.1-3.7,8.6-4.2,12.4-1.1C541.3,85.3,541.5,85.5,541.8,85.8L541.8,85.8z"/>
<path class="st4" d="M580.3,87.8l6-31c1.3-6.7,7.5-11.3,14.3-10.7l0,0c7.3,0.7,12.7,7.1,12.1,14.4c-0.1,1.1-0.3,2.1-0.7,3.1
	l-9.4,27.5L580.3,87.8z"/>
<circle class="st6" cx="601.3" cy="19.1" r="18.3"/>
<path class="st7" d="M579.1,8.8h29V-3.9c-6.4-2.5-12.6-4.7-16.4,0C584.8-3.9,579.1,1.8,579.1,8.8z"/>
<path class="st7" d="M609.8-6.1c17.3,0,22.2,21.7,22.2,34c0,6.8-3.1,9.3-8,10.1l-1.7-9.2l-4,9.5c-1.4,0-2.8,0-4.3,0l-1.4-2.8l-3,2.8
	c-12.2,0-22,1.8-22-10.4C587.6,15.6,591.8-6.1,609.8-6.1z"/>
<path class="st3" d="M743.1,354.7H459.7c-0.4,0-0.7-0.3-0.7-0.7s0.3-0.7,0.7-0.7h283.4c0.4,0,0.7,0.3,0.7,0.7
	S743.5,354.7,743.1,354.7z"/>
</svg>
