<?xml version="1.0" encoding="utf-8"?>
<!-- Generator: Adobe Illustrator 19.0.0, SVG Export Plug-In . SVG Version: 6.00 Build 0)  -->
<svg version="1.1" id="Layer_1" xmlns="http://www.w3.org/2000/svg" xmlns:xlink="http://www.w3.org/1999/xlink" x="0px" y="0px"
	 viewBox="189 -189 578 578" style="enable-background:new 189 -189 578 578;" xml:space="preserve">
<style type="text/css">
	.st0{fill:#F2F2F2;}
	.st1{fill:#C8C9C7;}
	.st2{fill:#FFFFFF;}
	.st3{fill:#E6E6E6;}
	.st4{fill:#426347;}
	.st5{fill:none;}
	.st6{fill:#2F2E41;}
	.st7{fill:#FEB8B8;}
	.st8{fill:#CCCCCC;}
	.st9{fill:#3F3D56;}
</style>
<path class="st0" d="M768.3,100.1c0.1,68.2-24,134.3-68.1,186.3c-1.6,1.9-3.2,3.8-4.9,5.6c-19.5,22-42.3,40.8-67.5,56
	c-5.8,3.5-11.7,6.7-17.7,9.8c-0.6,0.3-1.2,0.6-1.8,0.9c-0.7,0.4-1.5,0.7-2.2,1.1c-15.3,7.5-31.2,13.6-47.5,18.2
	c-1.7,0.5-3.4,0.9-5.1,1.4c-21.5,5.7-43.6,8.9-65.8,9.5c-1.2,0-2.3,0-3.4,0.1c-0.4,0-0.8,0-1.2,0c-1.3,0-2.5,0-3.7,0
	c-23.4,0-46.8-2.8-69.5-8.4c-2.3-0.6-4.5-1.1-6.8-1.8c-11.9-3.3-23.6-7.3-35-12c-6-2.5-11.9-5.2-17.7-8.1c-1.3-0.7-2.6-1.3-3.9-2
	c-0.5-0.3-1.1-0.6-1.6-0.8c-30.8-16.3-58.5-38-81.6-64.1c-1.6-1.8-3.2-3.6-4.7-5.4c-102.9-122-87.4-304.4,34.6-407.3
	c4.9-4.1,9.9-8,15-11.8c1.6-1.2,3.3-2.4,5-3.6c0.3-0.2,0.7-0.5,1-0.7c29.3-20.6,62.3-35.4,97.1-43.8c2-0.5,4-0.9,6-1.4
	c37.7-8.3,76.7-8.9,114.7-2c2,0.4,4,0.8,6,1.2c34.5,7.1,67.4,20.4,97.1,39.4c0.7,0.4,1.3,0.8,2,1.3c1.3,0.9,2.7,1.7,4,2.6
	C720.5-86,768.4,3.9,768.3,100.1z"/>
<rect id="a3c1d3c4-4e90-4475-ab67-d6aa194b0cda" x="266.4" y="11.6" class="st1" width="445.1" height="248.5"/>
<rect id="e222743c-d215-4483-8b06-896263acb449" x="279.2" y="45.3" class="st2" width="419.7" height="196"/>
<rect id="a5e02001-7de0-497e-bd39-9bc4e3f553c3" x="617.8" y="81.8" class="st3" width="10.9" height="12.1"/>
<rect id="a818f6b2-9049-4be6-858a-9eef7b067dda" x="320.8" y="156.3" class="st4" width="23.8" height="24.2"/>
<rect id="a818f6b2-9049-4be6-858a-9eef7b067dda_1_" x="355.1" y="156.3" class="st4" width="23.2" height="23.6"/>
<line id="a818f6b2-9049-4be6-858a-9eef7b067dda_2_" class="st5" x1="323.9" y1="93.8" x2="323.9" y2="81.8"/>
<rect id="e2dc3e68-3640-4751-a187-2d32846d30c0" x="320.3" y="70.3" class="st1" width="58" height="64.5"/>
<rect id="a0ba3db0-8b31-4423-a256-2a0dc53933ae" x="266.3" y="11.6" class="st4" width="445.1" height="21"/>
<ellipse id="bb2c25e8-a4f5-477f-938a-ba2f4a6c137d" class="st2" cx="280.3" cy="24.7" rx="3.5" ry="3.9"/>
<ellipse id="eb283697-d5f2-44f6-a11b-2e5adde2f565" class="st2" cx="293.6" cy="24.7" rx="3.5" ry="3.9"/>
<ellipse id="e7e312b6-8acc-452e-9cd4-4f6349f5007f" class="st2" cx="306.9" cy="24.7" rx="3.5" ry="3.9"/>
<rect id="b36c2a8e-a9be-4d37-810e-923692d19cdb" x="401.4" y="120.4" class="st3" width="88.7" height="5.7"/>
<rect id="aa1d26da-49a8-41de-8cb5-b8f8184fe0ae" x="401.4" y="141.1" class="st4" width="137" height="5.7"/>
<rect id="ac31809e-ecba-4f59-90db-296bd3050334" x="401.4" y="160.6" class="st3" width="111.7" height="5.7"/>
<rect id="b84288f0-dbbf-4761-bd75-4b898461b36c" x="401.4" y="180" class="st3" width="65.2" height="5.7"/>
<rect id="bd93c4e7-cb78-4a87-ab16-23d001bc2737" x="401.4" y="199.4" class="st3" width="98.4" height="5.7"/>
<rect id="bba4eb33-6fa2-4df7-a8d1-83644e8e5d67" x="636.5" y="81.8" class="st3" width="10.9" height="12.1"/>
<rect id="f2a4bb2b-ea4d-4e49-9a1a-d309a808d159" x="655.2" y="81.8" class="st3" width="10.9" height="12.1"/>
<ellipse id="b03b494e-dda4-489e-89cd-b5d563742355" class="st4" cx="636.5" cy="168.4" rx="32.1" ry="32.6"/>
<circle id="e6d27be5-fed8-4aaf-9e55-a91224dd363a" class="st6" cx="322.9" cy="-145.3" r="27.6"/>
<path id="fe6a134f-9064-47d4-b31c-90708736d4a8-2012" class="st7" d="M254.2,91.2h-12.1l-5.8-46.7h17.9V91.2z"/>
<path id="fa849e20-ba67-4278-81ee-d1167b7aa6dc-2013" class="st6" d="M233.4,87.7h23.3v14.7h-38C218.7,94.3,225.3,87.7,233.4,87.7z"
	/>
<path id="a88ec020-2ed6-4a48-814f-7c14aebc27ac-2014" class="st7" d="M235.3,84.4l-11.5-3.6l8.5-46.3l17,5.3L235.3,84.4z"/>
<path id="b4b30a85-97bd-4362-a855-e6f58c99cba3-2015" class="st6" d="M216.5,74.9l22.3,7l-4.4,14l-36.3-11.4
	C200.5,76.8,208.8,72.5,216.5,74.9L216.5,74.9L216.5,74.9L216.5,74.9z"/>
<path id="f42c0410-8a39-47c2-9be6-23f0eea84aff-2016" class="st6" d="M239.2,65.8c-0.5,0-1.1-0.1-1.5-0.3l-8.9-3.3
	c-2.1-0.8-3.2-3-2.8-5.1c2.2-10.1,9.9-44.4,14.1-62.8c5-21.8,77.3-25.9,80.4-26h0.3l8.1,10.2c2.9,9.5,2,16.8-2.8,21.9
	c-13.9,14.9-55.6,5.6-60.6,4.5L243.4,63C242.7,64.6,241.1,65.8,239.2,65.8L239.2,65.8z"/>
<path id="bb9232ec-2887-4985-b220-30c2c46adf62-2017" class="st6" d="M252,72.7c-0.5,0-1.1-0.1-1.5-0.3l-8.9-3.3
	c-2.1-0.8-3.2-3-2.8-5.1c2.2-10.1,9.9-44.4,14.1-62.8c5-21.8,77.3-25.9,80.4-26h0.3l8.1,10.2c2.9,9.5,2,16.8-2.8,21.9
	c-14,14.8-55.6,5.6-60.6,4.4l-22.1,58.1C255.5,71.6,253.9,72.7,252,72.7L252,72.7z"/>
<path id="bf752b52-878a-4c47-8a02-c5dd3ca125d0-2018" class="st7" d="M226.3-69.5c0.3,0.4,0.6,0.9,0.9,1.4l48.7,5.1l7-9.6l15.9,8.7
	L285-40.6l-59.7-15.2c-4.1,4-10.7,3.9-14.6-0.2c-4-4.1-3.9-10.7,0.2-14.6c4.1-4,10.7-3.9,14.6,0.2C225.7-70.1,226-69.8,226.3-69.5
	L226.3-69.5z"/>
<path id="f8a5325a-7268-4362-a255-60631c9bfca5-2020" class="st4" d="M292.9-58c-0.6,0-1.2-0.1-1.8-0.4l-12.7-5.5
	c-2.2-1-3.3-3.6-2.3-5.8l9.8-22.6c2.4-5.8,9.1-8.5,14.9-6c5.8,2.4,8.5,9.1,6,14.9l0,0c0,0,0,0.1-0.1,0.1l-9.8,22.6
	C296.3-59,294.7-58,292.9-58z"/>
<path id="ae95fee3-8471-4436-bacf-47da3ee4edce-2019" class="st8" d="M339.4-10.7c-0.7,0-1.4-0.2-2-0.5
	c-9.7-4.9-28.7-13.5-46.3-15.3c-1.2-0.1-2.3-0.7-3.1-1.7c-0.7-1-1-2.2-0.8-3.5c1.6-8.8,5.2-31.1,4.8-49.1
	c-0.3-11.3,7.3-21.4,18.3-24.1l0,0c3.2-0.8,6.5-1.5,9.8-1.9c13.4-1.7,25.7,7.8,27.4,21.2c0.3,2.4,0.3,4.8-0.2,7.2
	c-3.1,18.6-6.3,44.5-3.5,62.6c0.3,1.7-0.4,3.3-1.8,4.3C341.2-11,340.3-10.7,339.4-10.7z"/>
<circle id="e89a297e-1488-4b62-b167-7800139de88b" class="st7" cx="321.9" cy="-138.8" r="24.2"/>
<path id="bfc7d311-3606-4cd9-8309-fa0ce7944c94-2021" class="st6" d="M297.2-150.7c11.5,7,24.4,11.3,37.8,12.5l-4-4.8
	c2.9,1.1,6,1.7,9.1,1.8c3.1,0.1,6.1-1.3,8.1-3.8c1.6-2.6,1.8-5.7,0.6-8.5c-1.2-2.7-3.1-5.1-5.5-6.9c-8.6-6.8-20-8.8-30.4-5.4
	c-3.5,1.1-6.7,3.1-9.1,5.8c-2.3,2.8-6.7,5.4-5.5,8.8L297.2-150.7z"/>
<path id="ec73fef4-50dc-4543-9636-3b24ac170308-2022" class="st6" d="M325.7-160c4.8-4.9,10.7-8.7,17.1-11.1c4.1-1.7,8.6-2.3,13-1.6
	c4.3,0.9,8.4,3.9,9.6,8.1c1,3.5,0,7.2-1.6,10.5c-1.5,3.3-3.6,6.3-4.8,9.7c-4.2,11.5-4.7-1.7-4.7-1.7c0.1-3.4,0.2-7-1-10.2
	s-4.2-6-7.6-6c-2.6,0-4.9,1.6-7,3.2c-2.1,1.6-4.3,3.2-6.9,3.5c-2.6,0.2-5.6-1.7-5.4-4.3"/>
<path id="ba6ab2e4-b23b-4027-ba52-bbc91f9115f8-2023" class="st7" d="M281.2-17c-6,0-10.9-4.9-10.8-10.9c0-6,4.9-10.9,10.9-10.8
	c1.4,0,2.8,0.3,4.2,0.8l0,0c0.4,0.2,0.9,0.4,1.3,0.7L331-57l1.2-12l19-0.5l-0.1,19.9c0,4.7-3.2,8.9-7.8,10.2l-51.6,14.7
	c-0.1,0.3-0.2,0.7-0.4,1C289.5-19.6,285.6-17,281.2-17L281.2-17z"/>
<path id="b13d6e0f-103e-49e8-b98c-f9f1d84e31ae-2024" class="st4" d="M349.5-59.7c-0.5,0.3-1.1,0.4-1.7,0.5L334-58.4
	c-2.4,0.1-4.6-1.7-4.7-4.2l-1.5-24.6c-0.4-6.3,4.4-11.6,10.6-12c6.3-0.4,11.6,4.4,12,10.6l1.5,24.6C352-62.2,351-60.5,349.5-59.7
	L349.5-59.7z"/>
<path id="ef169b54-99b1-4807-9c68-842c3cbd65db" class="st9" d="M239.3-21.4h82.4c0.7,0,1.3,0.6,1.3,1.3v4.4c0,0.7-0.6,1.3-1.3,1.3
	h-82.4c-0.7,0-1.3-0.6-1.3-1.3v-4.4C238.1-20.8,238.6-21.4,239.3-21.4z"/>
<path id="ba69314c-00f4-451f-ada7-fcdfd2edc53a-2025" class="st9" d="M206.4-20.9v-48.4c0-3.5,2.9-6.4,6.4-6.4h87.8
	c3.5,0,6.4,2.9,6.4,6.4v48.4c0,3.5-2.9,6.4-6.4,6.4h-87.8C209.3-14.5,206.4-17.4,206.4-20.9z"/>
<circle id="bf28e027-707c-49c1-b6c0-ef0059b61f2f" class="st2" cx="257.8" cy="-45.1" r="5.9"/>
</svg>
