<?xml version="1.0" encoding="utf-8"?>
<!-- Generator: Adobe Illustrator 19.0.0, SVG Export Plug-In . SVG Version: 6.00 Build 0)  -->
<svg version="1.1" xmlns="http://www.w3.org/2000/svg" xmlns:xlink="http://www.w3.org/1999/xlink" x="0px" y="0px"
	 viewBox="189 -189 578 578" style="enable-background:new 189 -189 578 578;" xml:space="preserve">
<style type="text/css">
	.st0{fill:#F2F2F2;}
	.st1{fill:#CCCCCC;}
	.st2{fill:#3F3D56;}
	.st3{fill:#2F2E41;}
	.st4{fill:#426347;}
	.st5{fill:#E6E6E6;}
	.st6{opacity:0.2;enable-background:new    ;}
	.st7{fill:#A0616A;}
</style>
<g id="Background">
	<path class="st0" d="M767,100c0.1,68.2-24,134.3-68.1,186.3c-1.6,1.9-3.2,3.8-4.9,5.6c-19.5,22-42.3,40.8-67.5,56
		c-5.8,3.5-11.7,6.7-17.7,9.8c-0.6,0.3-1.2,0.6-1.8,0.9c-0.7,0.4-1.5,0.7-2.2,1.1c-15.3,7.5-31.2,13.6-47.5,18.2
		c-1.7,0.5-3.4,0.9-5.1,1.4c-21.5,5.7-43.6,8.9-65.8,9.5c-1.2,0-2.3,0-3.4,0.1c-0.4,0-0.8,0-1.2,0c-1.3,0-2.5,0-3.7,0
		c-23.4,0-46.8-2.8-69.5-8.4c-2.3-0.6-4.5-1.1-6.8-1.8c-11.9-3.3-23.6-7.3-35-12c-6-2.5-11.9-5.2-17.7-8.1c-1.3-0.7-2.6-1.3-3.9-2
		c-0.5-0.3-1.1-0.6-1.6-0.8c-30.8-16.3-58.5-38-81.6-64.1c-1.6-1.8-3.2-3.6-4.7-5.4c-102.9-122-87.4-304.4,34.6-407.3
		c4.9-4.1,9.9-8,15-11.8c1.6-1.2,3.3-2.4,5-3.6c0.3-0.2,0.7-0.5,1-0.7c29.3-20.6,62.3-35.4,97.1-43.8c2-0.5,4-0.9,6-1.4
		c37.7-8.3,76.7-8.9,114.7-2c2,0.4,4,0.8,6,1.2c34.5,7.1,67.4,20.4,97.1,39.4c0.7,0.4,1.3,0.8,2,1.3c1.3,0.9,2.7,1.7,4,2.6
		C719.2-86.1,767.1,3.8,767,100z"/>
	<path class="st1" d="M405,249.5l-92.4,8.2l-1,0.1v-394.1c0.3-0.2,0.7-0.5,1-0.7c19.3-13.5,40.1-24.5,62-32.9l4.7,65.1l0.4,6
		l4.7,64.6l1.4,19.9l18.9,261.7L405,249.5z"/>
	<path class="st1" d="M633.4-143.7c0.7,0.4,1.3,0.8,2,1.3v400.2l-2-0.2l-91.4-8.1l0.2-2.3l18.9-261.7l1.4-19.9l4.7-64.6l0.4-6
		l5-68.3C594-165.7,614.4-155.9,633.4-143.7z"/>
	<path class="st1" d="M633.4-143.7v406.9c0,7.8-5.4,14.2-12,14.2H324.6c-5.5,0-10.1-4.4-11.5-10.3c-0.3-1.3-0.5-2.6-0.5-3.8V-137
		c-0.3,0.2-0.7,0.5-1,0.7c-1.7,1.2-3.3,2.4-5,3.6v396c-0.1,5.9,2.1,11.7,6.2,16c2.1,2.2,4.8,3.8,7.8,4.7c1.3,0.4,2.6,0.5,4,0.5
		h296.8c1.4,0,2.7-0.2,4-0.5c8-2.2,14-10.6,14-20.7v-403c-1.3-0.9-2.6-1.8-4-2.6C634.8-142.8,634.1-143.3,633.4-143.7z"/>
	<rect x="309.7" y="-104.9" class="st1" width="326.8" height="6"/>
	<path class="st1" d="M409.7-180.9c2-0.5,4-0.9,6-1.4v161.8h-6V-180.9z"/>
	<path class="st1" d="M530.4-184.3c2,0.4,4,0.8,6,1.2v162.7h-6V-184.3z"/>
	<path class="st1" d="M673.7,247.2H282.3c-14.8,0-26.8,12-26.8,26.8s12,26.8,26.8,26.8h391.3c7.7,0,15-3.3,20.1-9.1
		c1.1-1.3,2.1-2.7,3-4.2c0.7-1.1,1.3-2.3,1.8-3.6c5.5-13.7-1.1-29.3-14.9-34.9C680.5,247.9,677.1,247.2,673.7,247.2L673.7,247.2z"/>
	<rect x="311.6" y="-34.4" class="st1" width="324.8" height="19.9"/>
	<path class="st1" d="M471-40.3h6c6,0,10.9,4.9,10.9,10.9l0,0l0,0h-27.8l0,0l0,0C460.1-35.4,465-40.3,471-40.3z"/>
	<path class="st2" d="M698.9,286.3c-8.7,10.3-18.1,20-28.1,29H285.2c-10-9-19.4-18.7-28.1-29H698.9z"/>
	<path class="st3" d="M510.3,186.1h-64.9c-0.3,0-0.7,0.1-1,0.2c-1.4,0.4-2.4,1.8-2.4,3.3v102.6h71.8V189.5
		C513.7,187.6,512.2,186.1,510.3,186.1C510.3,186.1,510.3,186.1,510.3,186.1z M485.7,236.7c0,1.7-0.5,3.3-1.6,4.6
		c-2.6,3.4-7.4,4-10.7,1.5c-1.9-1.4-3-3.7-3-6.1v-11.9c0-4.2,3.5-7.6,7.7-7.6c4.2,0,7.6,3.4,7.6,7.6V236.7z"/>
	<path class="st2" d="M441.7,288.8v9.9c0,1.1,0.9,1.9,1.9,1.9H512c1.1,0,1.9-0.9,1.9-1.9v-9.9H441.7z"/>
	<path class="st2" d="M617.8,26H340.3c-5,0-9,4-9,9v187.3c0,5,4,9,9,9h277.5c5,0,9-4,9-9V35C626.8,30,622.7,26,617.8,26z"/>
	<path class="st4" d="M615.5,32.5H342.6c-2.7,0-4.8,2.2-4.8,4.8V220c0,2.7,2.2,4.8,4.8,4.8h272.9c2.7,0,4.8-2.2,4.8-4.8V37.3
		C620.3,34.7,618.1,32.5,615.5,32.5z"/>
	<path class="st3" d="M565.2,300.5l-2.5-12c-0.2-1-0.9-1.8-1.9-2.2c-0.3-0.1-0.7-0.2-1.1-0.2H402.5c-0.4,0-0.7,0.1-1.1,0.2
		c-0.9,0.4-1.6,1.2-1.9,2.2l-2.5,12c-0.3,1.6,0.7,3.2,2.3,3.5c0.2,0,0.4,0.1,0.6,0.1h162.3c0.9,0,1.8-0.4,2.3-1.1
		C565.2,302.3,565.4,301.4,565.2,300.5z"/>
	<path class="st2" d="M404.1,288.3h4c0.3,0,0.5,0.2,0.5,0.5v2c0,0.3-0.2,0.5-0.5,0.5h-4c-0.3,0-0.5-0.2-0.5-0.5v-2
		C403.6,288.5,403.9,288.3,404.1,288.3z"/>
	<path class="st2" d="M414.1,288.3h4c0.3,0,0.5,0.2,0.5,0.5v2c0,0.3-0.2,0.5-0.5,0.5h-4c-0.3,0-0.5-0.2-0.5-0.5v-2
		C413.6,288.5,413.9,288.3,414.1,288.3z"/>
	<path class="st2" d="M424.1,288.3h4c0.3,0,0.5,0.2,0.5,0.5v2c0,0.3-0.2,0.5-0.5,0.5h-4c-0.3,0-0.5-0.2-0.5-0.5v-2
		C423.6,288.5,423.9,288.3,424.1,288.3z"/>
	<path class="st2" d="M434.1,288.3h4c0.3,0,0.5,0.2,0.5,0.5v2c0,0.3-0.2,0.5-0.5,0.5h-4c-0.3,0-0.5-0.2-0.5-0.5v-2
		C433.6,288.5,433.9,288.3,434.1,288.3z"/>
	<path class="st2" d="M444.1,288.3h4c0.3,0,0.5,0.2,0.5,0.5v2c0,0.3-0.2,0.5-0.5,0.5h-4c-0.3,0-0.5-0.2-0.5-0.5v-2
		C443.6,288.5,443.9,288.3,444.1,288.3z"/>
	<path class="st2" d="M454.1,288.3h4c0.3,0,0.5,0.2,0.5,0.5v2c0,0.3-0.2,0.5-0.5,0.5h-4c-0.3,0-0.5-0.2-0.5-0.5v-2
		C453.6,288.5,453.9,288.3,454.1,288.3z"/>
	<path class="st2" d="M464.1,288.3h4c0.3,0,0.5,0.2,0.5,0.5v2c0,0.3-0.2,0.5-0.5,0.5h-4c-0.3,0-0.5-0.2-0.5-0.5v-2
		C463.6,288.5,463.9,288.3,464.1,288.3z"/>
	<path class="st2" d="M474.1,288.3h4c0.3,0,0.5,0.2,0.5,0.5v2c0,0.3-0.2,0.5-0.5,0.5h-4c-0.3,0-0.5-0.2-0.5-0.5v-2
		C473.6,288.5,473.9,288.3,474.1,288.3z"/>
	<path class="st2" d="M484.1,288.3h4c0.3,0,0.5,0.2,0.5,0.5v2c0,0.3-0.2,0.5-0.5,0.5h-4c-0.3,0-0.5-0.2-0.5-0.5v-2
		C483.6,288.5,483.9,288.3,484.1,288.3z"/>
	<path class="st2" d="M494.1,288.3h4c0.3,0,0.5,0.2,0.5,0.5v2c0,0.3-0.2,0.5-0.5,0.5h-4c-0.3,0-0.5-0.2-0.5-0.5v-2
		C493.6,288.5,493.9,288.3,494.1,288.3z"/>
	<path class="st2" d="M504.1,288.3h4c0.3,0,0.5,0.2,0.5,0.5v2c0,0.3-0.2,0.5-0.5,0.5h-4c-0.3,0-0.5-0.2-0.5-0.5v-2
		C503.6,288.5,503.9,288.3,504.1,288.3z"/>
	<path class="st2" d="M514.1,288.3h4c0.3,0,0.5,0.2,0.5,0.5v2c0,0.3-0.2,0.5-0.5,0.5h-4c-0.3,0-0.5-0.2-0.5-0.5v-2
		C513.6,288.5,513.9,288.3,514.1,288.3z"/>
	<path class="st2" d="M524.1,288.3h4c0.3,0,0.5,0.2,0.5,0.5v2c0,0.3-0.2,0.5-0.5,0.5h-4c-0.3,0-0.5-0.2-0.5-0.5v-2
		C523.6,288.5,523.9,288.3,524.1,288.3z"/>
	<path class="st2" d="M534.1,288.3h4c0.3,0,0.5,0.2,0.5,0.5v2c0,0.3-0.2,0.5-0.5,0.5h-4c-0.3,0-0.5-0.2-0.5-0.5v-2
		C533.6,288.5,533.9,288.3,534.1,288.3z"/>
	<path class="st2" d="M544.1,288.3h4c0.3,0,0.5,0.2,0.5,0.5v2c0,0.3-0.2,0.5-0.5,0.5h-4c-0.3,0-0.5-0.2-0.5-0.5v-2
		C543.6,288.5,543.9,288.3,544.1,288.3z"/>
	<path class="st2" d="M554.1,288.3h4c0.3,0,0.5,0.2,0.5,0.5v2c0,0.3-0.2,0.5-0.5,0.5h-4c-0.3,0-0.5-0.2-0.5-0.5v-2
		C553.6,288.5,553.9,288.3,554.1,288.3z"/>
	<path class="st2" d="M404,293.3h4c0.3,0,0.5,0.2,0.5,0.5v2c0,0.3-0.2,0.5-0.5,0.5h-4c-0.3,0-0.5-0.2-0.5-0.5v-2
		C403.5,293.5,403.7,293.3,404,293.3z"/>
	<path class="st2" d="M414,293.3h4c0.3,0,0.5,0.2,0.5,0.5v2c0,0.3-0.2,0.5-0.5,0.5h-4c-0.3,0-0.5-0.2-0.5-0.5v-2
		C413.5,293.5,413.7,293.3,414,293.3z"/>
	<path class="st2" d="M424,293.3h4c0.3,0,0.5,0.2,0.5,0.5v2c0,0.3-0.2,0.5-0.5,0.5h-4c-0.3,0-0.5-0.2-0.5-0.5v-2
		C423.5,293.5,423.7,293.3,424,293.3z"/>
	<path class="st2" d="M434,293.3h4c0.3,0,0.5,0.2,0.5,0.5v2c0,0.3-0.2,0.5-0.5,0.5h-4c-0.3,0-0.5-0.2-0.5-0.5v-2
		C433.5,293.5,433.7,293.3,434,293.3z"/>
	<path class="st2" d="M444,293.3h4c0.3,0,0.5,0.2,0.5,0.5v2c0,0.3-0.2,0.5-0.5,0.5h-4c-0.3,0-0.5-0.2-0.5-0.5v-2
		C443.5,293.5,443.7,293.3,444,293.3z"/>
	<path class="st2" d="M454,293.3h4c0.3,0,0.5,0.2,0.5,0.5v2c0,0.3-0.2,0.5-0.5,0.5h-4c-0.3,0-0.5-0.2-0.5-0.5v-2
		C453.5,293.5,453.7,293.3,454,293.3z"/>
	<path class="st2" d="M464,293.3h4c0.3,0,0.5,0.2,0.5,0.5v2c0,0.3-0.2,0.5-0.5,0.5h-4c-0.3,0-0.5-0.2-0.5-0.5v-2
		C463.5,293.5,463.7,293.3,464,293.3z"/>
	<path class="st2" d="M474,293.3h4c0.3,0,0.5,0.2,0.5,0.5v2c0,0.3-0.2,0.5-0.5,0.5h-4c-0.3,0-0.5-0.2-0.5-0.5v-2
		C473.5,293.5,473.7,293.3,474,293.3z"/>
	<path class="st2" d="M484,293.3h4c0.3,0,0.5,0.2,0.5,0.5v2c0,0.3-0.2,0.5-0.5,0.5h-4c-0.3,0-0.5-0.2-0.5-0.5v-2
		C483.5,293.5,483.7,293.3,484,293.3z"/>
	<path class="st2" d="M494,293.3h4c0.3,0,0.5,0.2,0.5,0.5v2c0,0.3-0.2,0.5-0.5,0.5h-4c-0.3,0-0.5-0.2-0.5-0.5v-2
		C493.5,293.5,493.7,293.3,494,293.3z"/>
	<path class="st2" d="M504,293.3h4c0.3,0,0.5,0.2,0.5,0.5v2c0,0.3-0.2,0.5-0.5,0.5h-4c-0.3,0-0.5-0.2-0.5-0.5v-2
		C503.5,293.5,503.7,293.3,504,293.3z"/>
	<path class="st2" d="M514,293.3h4c0.3,0,0.5,0.2,0.5,0.5v2c0,0.3-0.2,0.5-0.5,0.5h-4c-0.3,0-0.5-0.2-0.5-0.5v-2
		C513.5,293.5,513.7,293.3,514,293.3z"/>
	<path class="st2" d="M524,293.3h4c0.3,0,0.5,0.2,0.5,0.5v2c0,0.3-0.2,0.5-0.5,0.5h-4c-0.3,0-0.5-0.2-0.5-0.5v-2
		C523.5,293.5,523.7,293.3,524,293.3z"/>
	<path class="st2" d="M534,293.3h4c0.3,0,0.5,0.2,0.5,0.5v2c0,0.3-0.2,0.5-0.5,0.5h-4c-0.3,0-0.5-0.2-0.5-0.5v-2
		C533.5,293.5,533.7,293.3,534,293.3z"/>
	<path class="st2" d="M544,293.3h4c0.3,0,0.5,0.2,0.5,0.5v2c0,0.3-0.2,0.5-0.5,0.5h-4c-0.3,0-0.5-0.2-0.5-0.5v-2
		C543.5,293.5,543.7,293.3,544,293.3z"/>
	<path class="st2" d="M554,293.3h4c0.3,0,0.5,0.2,0.5,0.5v2c0,0.3-0.2,0.5-0.5,0.5h-4c-0.3,0-0.5-0.2-0.5-0.5v-2
		C553.5,293.5,553.7,293.3,554,293.3z"/>
	<path class="st2" d="M452,299.3h39c0.3,0,0.5,0.2,0.5,0.5v2c0,0.3-0.2,0.5-0.5,0.5h-39c-0.3,0-0.5-0.2-0.5-0.5v-2
		C451.5,299.5,451.7,299.3,452,299.3z"/>
	<path class="st2" d="M601.7,57.7H346.4c-0.6,0-1-0.5-1-1c0-0.5,0.4-1,1-1h255.3c0.6,0,1,0.5,1,1C602.7,57.2,602.3,57.7,601.7,57.7z
		"/>
	<ellipse class="st2" cx="363.8" cy="44.4" rx="6" ry="6.1"/>
	<ellipse class="st2" cx="384.4" cy="44.4" rx="6" ry="6.1"/>
	<ellipse class="st2" cx="404.9" cy="44.4" rx="6" ry="6.1"/>
	<path class="st2" d="M589.4,39.8h-14.6c-0.6,0-1.1,0.5-1.1,1.1c0,0.6,0.5,1.1,1.1,1.1h14.6c0.6,0,1.1-0.5,1.1-1.1
		C590.5,40.3,590,39.8,589.4,39.8z"/>
	<path class="st2" d="M589.4,44h-14.6c-0.6,0-1.1,0.5-1.1,1.1c0,0.6,0.5,1.1,1.1,1.1h14.6c0.6,0,1.1-0.5,1.1-1.1
		C590.5,44.4,590,44,589.4,44z"/>
	<path class="st2" d="M589.4,48.1h-14.6c-0.6,0-1.1,0.5-1.1,1.1c0,0.6,0.5,1.1,1.1,1.1h14.6c0.6,0,1.1-0.5,1.1-1.1
		C590.5,48.6,590,48.1,589.4,48.1z"/>
	<path class="st5" d="M363.2,81.3h5.2c1.6,0,2.9,1.3,2.9,2.9v0c0,1.6-1.3,2.9-2.9,2.9h-5.2c-1.6,0-2.9-1.3-2.9-2.9v0
		C360.3,82.6,361.6,81.3,363.2,81.3z"/>
	<path class="st5" d="M423.2,81.3h5.2c1.6,0,2.9,1.3,2.9,2.9v0c0,1.6-1.3,2.9-2.9,2.9h-5.2c-1.6,0-2.9-1.3-2.9-2.9v0
		C420.3,82.6,421.6,81.3,423.2,81.3z"/>
	<path class="st5" d="M440.2,81.3h5.2c1.6,0,2.9,1.3,2.9,2.9v0c0,1.6-1.3,2.9-2.9,2.9h-5.2c-1.6,0-2.9-1.3-2.9-2.9v0
		C437.3,82.6,438.6,81.3,440.2,81.3z"/>
	<path class="st5" d="M379.5,80.8h32.6c1.6,0,2.9,1.3,2.9,2.9v0c0,1.6-1.3,2.9-2.9,2.9h-32.6c-1.6,0-2.9-1.3-2.9-2.9v0
		C376.6,82.1,377.9,80.8,379.5,80.8z"/>
	<path class="st5" d="M459.5,80.8h32.6c1.6,0,2.9,1.3,2.9,2.9v0c0,1.6-1.3,2.9-2.9,2.9h-32.6c-1.6,0-2.9-1.3-2.9-2.9v0
		C456.6,82.1,457.9,80.8,459.5,80.8z"/>
	<path class="st5" d="M379.2,94.3h5.2c1.6,0,2.9,1.3,2.9,2.9v0c0,1.6-1.3,2.9-2.9,2.9h-5.2c-1.6,0-2.9-1.3-2.9-2.9v0
		C376.3,95.6,377.6,94.3,379.2,94.3z"/>
	<path class="st5" d="M439.2,94.3h5.2c1.6,0,2.9,1.3,2.9,2.9v0c0,1.6-1.3,2.9-2.9,2.9h-5.2c-1.6,0-2.9-1.3-2.9-2.9v0
		C436.3,95.6,437.6,94.3,439.2,94.3z"/>
	<path class="st5" d="M456.2,94.3h5.2c1.6,0,2.9,1.3,2.9,2.9v0c0,1.6-1.3,2.9-2.9,2.9h-5.2c-1.6,0-2.9-1.3-2.9-2.9v0
		C453.3,95.6,454.6,94.3,456.2,94.3z"/>
	<path class="st5" d="M395.5,93.8h32.6c1.6,0,2.9,1.3,2.9,2.9v0c0,1.6-1.3,2.9-2.9,2.9h-32.6c-1.6,0-2.9-1.3-2.9-2.9v0
		C392.6,95.1,393.9,93.8,395.5,93.8z"/>
	<path class="st5" d="M475.5,93.8h32.6c1.6,0,2.9,1.3,2.9,2.9v0c0,1.6-1.3,2.9-2.9,2.9h-32.6c-1.6,0-2.9-1.3-2.9-2.9v0
		C472.6,95.1,473.9,93.8,475.5,93.8z"/>
	<path class="st5" d="M395.2,107.3h5.2c1.6,0,2.9,1.3,2.9,2.9v0c0,1.6-1.3,2.9-2.9,2.9h-5.2c-1.6,0-2.9-1.3-2.9-2.9v0
		C392.3,108.6,393.6,107.3,395.2,107.3z"/>
	<path class="st5" d="M455.2,107.3h5.2c1.6,0,2.9,1.3,2.9,2.9v0c0,1.6-1.3,2.9-2.9,2.9h-5.2c-1.6,0-2.9-1.3-2.9-2.9v0
		C452.3,108.6,453.6,107.3,455.2,107.3z"/>
	<path class="st5" d="M472.2,107.3h5.2c1.6,0,2.9,1.3,2.9,2.9v0c0,1.6-1.3,2.9-2.9,2.9h-5.2c-1.6,0-2.9-1.3-2.9-2.9v0
		C469.3,108.6,470.6,107.3,472.2,107.3z"/>
	<path class="st5" d="M411.5,106.8h32.6c1.6,0,2.9,1.3,2.9,2.9v0c0,1.6-1.3,2.9-2.9,2.9h-32.6c-1.6,0-2.9-1.3-2.9-2.9v0
		C408.6,108.1,409.9,106.8,411.5,106.8z"/>
	<path class="st5" d="M491.5,106.8h32.6c1.6,0,2.9,1.3,2.9,2.9v0c0,1.6-1.3,2.9-2.9,2.9h-32.6c-1.6,0-2.9-1.3-2.9-2.9v0
		C488.6,108.1,489.9,106.8,491.5,106.8z"/>
	<path class="st5" d="M411.2,120.3h5.2c1.6,0,2.9,1.3,2.9,2.9v0c0,1.6-1.3,2.9-2.9,2.9h-5.2c-1.6,0-2.9-1.3-2.9-2.9v0
		C408.3,121.6,409.6,120.3,411.2,120.3z"/>
	<path class="st5" d="M471.2,120.3h5.2c1.6,0,2.9,1.3,2.9,2.9v0c0,1.6-1.3,2.9-2.9,2.9h-5.2c-1.6,0-2.9-1.3-2.9-2.9v0
		C468.3,121.6,469.6,120.3,471.2,120.3z"/>
	<path class="st5" d="M488.2,120.3h5.2c1.6,0,2.9,1.3,2.9,2.9v0c0,1.6-1.3,2.9-2.9,2.9h-5.2c-1.6,0-2.9-1.3-2.9-2.9v0
		C485.3,121.6,486.6,120.3,488.2,120.3z"/>
	<path class="st5" d="M427.5,119.8h32.6c1.6,0,2.9,1.3,2.9,2.9v0c0,1.6-1.3,2.9-2.9,2.9h-32.6c-1.6,0-2.9-1.3-2.9-2.9v0
		C424.6,121.1,425.9,119.8,427.5,119.8z"/>
	<path class="st5" d="M423.2,172h5.2c1.6,0,2.9,1.3,2.9,2.9v0c0,1.6-1.3,2.9-2.9,2.9h-5.2c-1.6,0-2.9-1.3-2.9-2.9v0
		C420.3,173.3,421.6,172,423.2,172z"/>
	<path class="st5" d="M440.2,172h5.2c1.6,0,2.9,1.3,2.9,2.9v0c0,1.6-1.3,2.9-2.9,2.9h-5.2c-1.6,0-2.9-1.3-2.9-2.9v0
		C437.3,173.3,438.6,172,440.2,172z"/>
	<path class="st5" d="M459.5,172.4h32.6c1.6,0,2.9,1.3,2.9,2.9v0c0,1.6-1.3,2.9-2.9,2.9h-32.6c-1.6,0-2.9-1.3-2.9-2.9v0
		C456.6,173.7,457.9,172.4,459.5,172.4z"/>
	<path class="st5" d="M363.2,172h5.2c1.6,0,2.9,1.3,2.9,2.9v0c0,1.6-1.3,2.9-2.9,2.9h-5.2c-1.6,0-2.9-1.3-2.9-2.9v0
		C360.3,173.3,361.6,172,363.2,172z"/>
	<path class="st5" d="M379.5,172.4h32.6c1.6,0,2.9,1.3,2.9,2.9v0c0,1.6-1.3,2.9-2.9,2.9h-32.6c-1.6,0-2.9-1.3-2.9-2.9v0
		C376.6,173.7,377.9,172.4,379.5,172.4z"/>
	<path class="st5" d="M379.2,159h5.2c1.6,0,2.9,1.3,2.9,2.9v0c0,1.6-1.3,2.9-2.9,2.9h-5.2c-1.6,0-2.9-1.3-2.9-2.9v0
		C376.3,160.3,377.6,159,379.2,159z"/>
	<path class="st5" d="M439.2,159h5.2c1.6,0,2.9,1.3,2.9,2.9v0c0,1.6-1.3,2.9-2.9,2.9h-5.2c-1.6,0-2.9-1.3-2.9-2.9v0
		C436.3,160.3,437.6,159,439.2,159z"/>
	<path class="st5" d="M456.2,159h5.2c1.6,0,2.9,1.3,2.9,2.9v0c0,1.6-1.3,2.9-2.9,2.9h-5.2c-1.6,0-2.9-1.3-2.9-2.9v0
		C453.3,160.3,454.6,159,456.2,159z"/>
	<path class="st5" d="M395.5,159.4h32.6c1.6,0,2.9,1.3,2.9,2.9v0c0,1.6-1.3,2.9-2.9,2.9h-32.6c-1.6,0-2.9-1.3-2.9-2.9v0
		C392.6,160.7,393.9,159.4,395.5,159.4z"/>
	<path class="st5" d="M395.2,146h5.2c1.6,0,2.9,1.3,2.9,2.9v0c0,1.6-1.3,2.9-2.9,2.9h-5.2c-1.6,0-2.9-1.3-2.9-2.9v0
		C392.3,147.3,393.6,146,395.2,146z"/>
	<path class="st5" d="M455.2,146h5.2c1.6,0,2.9,1.3,2.9,2.9v0c0,1.6-1.3,2.9-2.9,2.9h-5.2c-1.6,0-2.9-1.3-2.9-2.9v0
		C452.3,147.3,453.6,146,455.2,146z"/>
	<path class="st5" d="M472.2,146h5.2c1.6,0,2.9,1.3,2.9,2.9v0c0,1.6-1.3,2.9-2.9,2.9h-5.2c-1.6,0-2.9-1.3-2.9-2.9v0
		C469.3,147.3,470.6,146,472.2,146z"/>
	<path class="st5" d="M411.5,146.4h32.6c1.6,0,2.9,1.3,2.9,2.9v0c0,1.6-1.3,2.9-2.9,2.9h-32.6c-1.6,0-2.9-1.3-2.9-2.9v0
		C408.6,147.7,409.9,146.4,411.5,146.4z"/>
	<path class="st5" d="M411.2,133h5.2c1.6,0,2.9,1.3,2.9,2.9v0c0,1.6-1.3,2.9-2.9,2.9h-5.2c-1.6,0-2.9-1.3-2.9-2.9v0
		C408.3,134.3,409.6,133,411.2,133z"/>
	<path class="st5" d="M471.2,133h5.2c1.6,0,2.9,1.3,2.9,2.9v0c0,1.6-1.3,2.9-2.9,2.9h-5.2c-1.6,0-2.9-1.3-2.9-2.9v0
		C468.3,134.3,469.6,133,471.2,133z"/>
	<path class="st5" d="M488.2,133h5.2c1.6,0,2.9,1.3,2.9,2.9v0c0,1.6-1.3,2.9-2.9,2.9h-5.2c-1.6,0-2.9-1.3-2.9-2.9v0
		C485.3,134.3,486.6,133,488.2,133z"/>
	<path class="st5" d="M427.5,133.4h32.6c1.6,0,2.9,1.3,2.9,2.9v0c0,1.6-1.3,2.9-2.9,2.9h-32.6c-1.6,0-2.9-1.3-2.9-2.9v0
		C424.6,134.7,425.9,133.4,427.5,133.4z"/>
	<path class="st2" d="M604.8,359.8c-0.6,0.3-1.2,0.6-1.8,0.9c-15.8,7.9-28.4,12.4-45.7,17.3c-1.5-16.3-2.9-45-4.2-62.7
		c-0.4-4.6-0.7-8.5-1.1-11.2c-0.1-1.5-0.4-2.9-0.9-4.3l0.1,4.3l0.2,11.2l0.9,64.1c-21.5,5.7-43.6,8.9-65.8,9.5c-1.2,0-2.3,0-3.4,0.1
		c-0.4,0-0.8,0-1.2,0c-1.3,0-2.5,0-3.7,0c-23.4,0-46.8-2.8-69.5-8.4c0.5-16.1,1-44.5,1.5-65.3c0.1-4.1,0.2-7.9,0.3-11.2
		c0.2-7.2,0.4-12.3,0.6-14c-0.2,0.3-0.3,0.6-0.4,1c-0.9,4.3-1.6,8.7-1.9,13.1c-0.3,3.3-0.7,7.1-1,11.2c-1.9,21.6-3.8,51-5.8,63.5
		c-11.9-3.3-23.6-7.3-35-12c-6-2.5-11.9-5.2-17.7-8.1c1.1-7.2,2.3-15.3,3.4-23.6c0.9-6.5,1.9-13.2,2.8-19.8c1.5-10.2,3-20.2,4.6-29
		c2.3-12.8,4.6-23.2,6.9-27.9c2.2-4.5,4.4-8.9,6.5-13.2c0.7-1.5,1.5-3,2.2-4.4c0.2-0.3,0.3-0.7,0.5-1c1.5-3,3-5.9,4.4-8.6
		c1.2-2.3,2.4-4.5,3.5-6.5c2.6-4.9,4.9-8.8,6.5-11.2c6.9-10.5,17.3-18.4,29.3-22.2l0.3-0.1l0.2,0.1l20.5-6.3l3-0.9l2-0.6l7.1-5.4
		l3.8-2.9l3.6-2.8l7.1-5.4l43.7,2.7l8.5,20.5l19.1,7l0.3-0.2l0.3-0.1l0.3,0.1c12,3.8,22.3,11.7,29.3,22.2c0.9,1.4,2.1,3.3,3.4,5.5
		c1.1,1.9,2.3,4.1,3.6,6.5c1.8,3.4,3.9,7.3,6,11.5c0.5,0.9,1,1.9,1.4,2.8c0.9,1.8,1.8,3.6,2.7,5.4c2.1,4.3,4.3,8.7,6.5,13.2
		c1.9,3.9,3.8,12,5.7,22.2c1.6,8.5,3.1,18.5,4.6,29c2,13.5-0.1,29.7,1.7,42.2C604.6,358.2,604.7,359,604.8,359.8z"/>
	<polygon class="st6" points="395.3,286.3 403.8,253.5 411.3,281.8 	"/>
	<path class="st3" d="M621.4,264.9c-3,41.9,0.1,60.3-16.7,94.8c-15.3,7.5-31.2,13.6-47.5,18.2c-1.7,0.5-3.4,0.9-5.1,1.4
		c-21.5,5.7-43.6,8.9-65.8,9.5c-1.2,0-2.3,0-3.4,0.1c-0.4,0-0.8,0-1.2,0c-1.3,0-2.5,0-3.7,0c-23.4,0-46.8-2.8-69.5-8.4
		c-2.3-0.6-4.5-1.1-6.8-1.8c-11.9-3.3-23.6-7.3-35-12c-6-2.5-11.9-5.2-17.7-8.1c-1.3-0.7-2.6-1.3-3.9-2
		c-6.6-11.7-10.4-25.8-10.5-42.9C339.2,284.4,611.3,239.6,621.4,264.9z"/>
	<path class="st6" d="M621.4,272.1c0.2-2.6,0.3-5.3,0.5-8.1c-10.1-25.3-282.2,19.5-286.8,48.9c0,2.7,0.1,5.3,0.3,7.9
		C346.6,291.8,605.1,249.2,621.4,272.1z"/>
</g>
<g id="Hand">
	<g>
		<path class="st3" d="M352.1,153.2c0.3-3.5-2.4-6.6-5.9-6.8c-0.3,0-0.6,0-0.9,0c-0.3,0-0.7,0.1-1,0.1l-39.8,9
			c-1.8,0.4-3.3,1.6-4.2,3.2c-0.6,0-1.2,0.1-1.7,0.3c-5.2,1.2-8.5,6.4-7.3,11.6c1.2,5.2,6.4,8.5,11.6,7.3c1.4-0.3,2.8-1,3.9-1.9
			l13.5,37.9c1.4,2.4,4.2,3.7,6.9,3l25.8-5.8c2.7-0.6,4.7-2.9,4.9-5.7L352.1,153.2z M302.3,175.1c-3.7,0.8-7.4-1.5-8.3-5.2
			c-0.8-3.7,1.5-7.4,5.2-8.3c0.1,0,0.3,0,0.4,0c0,1.1,0.3,2.3,0.8,3.3l4.9,8.6C304.5,174.3,303.5,174.8,302.3,175.1z"/>
		<path class="st2" d="M345.3,146.3c0.4,5-8.2,10.8-19.8,13.1c-10.6,2.2-20.1,0.7-22.7-3.3c0.5-0.3,1.1-0.6,1.7-0.7l39.8-9
			C344.7,146.4,345,146.3,345.3,146.3z"/>
		<path class="st7" d="M317.8,273.9l22.3-11.2l-18.6-50.3l-4.9-25.3c-2-10.4-12.1-17.2-22.5-15.2c-3.3,0.6-6.3,2.1-8.8,4.3l0,0
			c-7.8,6.7-8.9,18.5-2.5,26.5l18.2,22.8L317.8,273.9z"/>
		<path class="st2" d="M340.9,252.2l-30.2,14l20.5,71.4c3,10.4,11.2,18.5,21.7,21.4l0,0c13,3.5,26.9-1.8,34.1-13.2L450,244.9
			c9.3-14.5,5.3-33.7-8.9-43.3l0,0c-14.5-9.8-34.1-6-43.9,8.5c-0.6,0.9-1.2,1.9-1.8,2.9l-38.8,76.8L340.9,252.2z"/>
		<path class="st4" d="M331,189.4c-0.1,0-0.1,0-0.2,0l-6.5-2.2c-0.3-0.1-0.4-0.4-0.3-0.6c0-0.1,0.1-0.1,0.1-0.2l4.8-5.3
			c0.2-0.2,0.5-0.2,0.7,0c0.2,0.2,0.2,0.5,0,0.7c0,0,0,0,0,0l-4.3,4.7l5.8,2c0.3,0.1,0.4,0.4,0.3,0.6
			C331.4,189.3,331.2,189.4,331,189.4z"/>
		<path class="st4" d="M339.9,187.6c-0.3,0-0.5-0.2-0.5-0.5c0-0.1,0.1-0.3,0.2-0.4l4.4-4.2l-5.9-2.4c-0.3-0.1-0.4-0.4-0.3-0.7
			c0.1-0.3,0.4-0.4,0.7-0.3c0,0,0,0,0,0l6.6,2.7c0.3,0.1,0.4,0.4,0.3,0.7c0,0.1-0.1,0.1-0.1,0.2l-4.9,4.8
			C340.1,187.6,340,187.6,339.9,187.6z"/>
		<path class="st4" d="M332.3,192.5c0,0-0.1,0-0.1,0c-0.3-0.1-0.4-0.4-0.3-0.6c0,0,0,0,0,0l4.6-15c0.1-0.3,0.4-0.4,0.6-0.3
			c0.3,0.1,0.4,0.4,0.3,0.6l-4.6,15C332.7,192.4,332.6,192.5,332.3,192.5z"/>
	</g>
</g>
<g id="Head">
	<g>
		<circle class="st7" cx="478.6" cy="99.9" r="50.8"/>
		<path class="st3" d="M562.5,32.5c-1-2.3-2.3-4.5-4-6.5c-7.7-9.4-21.8-13.6-36.2-2.4c-2.8-0.6-5.7-0.5-8.3,0.5
			c-1.3,0.5-2.5,1.1-3.5,1.9c-2.2,1.7-3.9,3.9-4.9,6.5c-0.6,1.4-0.9,2.8-1.1,4.2c-3.6-1.9-7.3-3.3-11.2-4.2
			c-9.6-2.4-19.6-2.4-29.1,0c-3.1,0.8-6,1.9-8.8,3.5c-4.7,2.7-7.4,6.1-7.8,9.9c-6.8,0.4-13.8,3.9-19,9.8c-0.6,0.6-1.2,1.3-1.7,2
			c-4.4,5.8-6.8,12.8-6.7,20.1V79h1.3c3.5,0,6.9,0.7,10.2,2c2.1,0.8,4.1,1.9,5.9,3.3c1.2,0.8,2.3,1.8,3.4,2.8c2.4,2.4,4.5,5.1,6.1,8
			c4.2,7.5,5.6,16.2,4.1,24.7c-0.3,2-0.9,3.9-1.5,5.8c-0.9,2.7-2.2,5.2-3.7,7.6c-0.1,0.1-0.1,0.2-0.2,0.3c-0.7,1.1-1.3,2.2-1.9,3.3
			c-0.5,0.8-0.9,1.7-1.3,2.5c-1.1,2.3-2.1,4.8-2.9,7.2c-1.4,4.4-2.2,8.9-2.4,13.5c-0.1,1.2-0.1,2.4,0,3.7c0.1,3.1,0.4,6.3,1,9.4
			c0.1,0.4,0.2,0.8,0.3,1.3l0.7,3.2l1.7,7.6l1.2,5.2l1.1,4.9l1.6-2.3c0.6-0.8,2-3.3,3.9-6.7c1.3-2.3,2.7-5,4.3-7.9
			c2.2-4.2,4.6-8.8,6.9-13.4c1-1.9,1.9-3.7,2.8-5.5c1.7-3.5,3.3-6.8,4.7-9.7c1.3-2.7,2.4-5.1,3.2-7.1c0.3,1.3,0.5,2.6,0.6,3.9
			c0.2,1.3,0.3,2.7,0.4,4c0,0.2,0,0.4,0,0.6l0,0.8l0,0.2l1.1,0.1c6.1,0.7,12.3,0.7,18.4,0.1h0c8.1-0.6,16.1-2.5,23.6-5.7
			c4.3-1.8,8.2-4.3,11.8-7.2c1.7-1.4,3.2-2.9,4.7-4.5c0.4-0.4,0.7-0.8,1-1.2c2-2.4,3.7-5.1,5-7.9c0.9-1.9,1.7-3.8,2.3-5.8
			c3.8-11.6,3.6-26.1-0.7-43.4c1.2-0.2,2.3-0.6,3.3-1.3c3.1-1.9,5.3-5.6,6-10.2l1.1,0.3c3.8-1.8,7.2-4.4,10-7.5
			c0.5-0.6,1.1-1.3,1.5-2C565.6,48.5,565.6,39.8,562.5,32.5z"/>
	</g>
</g>
</svg>
